# Blender v2.91.0 OBJ File: 'alpaca.blend'
# www.blender.org
mtllib alpaca.mtl
o alpaca_Cube.001
v 0.552469 1.365485 0.900000
v 0.381069 2.295919 0.900000
v 0.505584 1.270619 -0.900000
v 0.441169 2.272710 -0.757992
v 0.591505 1.778283 -0.958960
v 0.515444 1.778283 1.060048
v 0.570292 1.115386 0.000000
v 0.505584 2.312088 0.000000
v 0.720000 1.699024 0.000000
v 0.182544 3.406066 1.372465
v 0.201175 3.051567 1.538096
v 0.125802 3.258691 1.910344
v 0.105275 3.083814 1.948246
v 0.184947 3.393576 1.522218
v 0.174888 3.405840 1.382359
v 0.049920 3.405840 1.382359
v 0.049920 3.412424 1.509577
v 0.176533 3.397289 1.512128
v 0.219308 3.471656 1.383744
v 0.208631 3.610406 1.383744
v 0.213553 3.614778 1.510963
v 0.213262 3.465585 1.513514
v 0.111747 1.178283 0.836061
v 0.449127 1.178283 0.836061
v 0.111747 1.117308 0.457541
v 0.449127 1.117308 0.457541
v 0.470768 1.117308 -0.439409
v 0.470768 1.178283 -0.863701
v 0.118026 1.178283 -0.863701
v 0.118026 1.117308 -0.439409
v 0.175715 0.477683 0.839104
v 0.388030 0.477683 0.839104
v 0.140112 0.477683 0.556272
v 0.420098 0.477683 0.556272
v 0.401492 0.477683 -0.569909
v 0.437850 0.477683 -0.861825
v 0.151607 0.477683 -0.861825
v 0.184431 0.477683 -0.569909
v 0.174107 0.033566 1.087623
v 0.393048 0.033566 1.087623
v 0.111559 0.033566 0.662253
v 0.451358 0.033566 0.662253
v 0.391178 0.033566 -0.277653
v 0.448454 0.033566 -0.671454
v 0.138296 0.033566 -0.671454
v 0.191334 0.033566 -0.277653
v -0.552469 1.365485 0.900000
v -0.381069 2.295919 0.900000
v -0.505584 1.270619 -0.900000
v -0.441169 2.272710 -0.757992
v 0.000000 1.294386 -1.019041
v 0.000000 2.378283 -0.900000
v 0.000000 1.239166 0.900000
v 0.000000 2.378283 0.705376
v -0.591505 1.778283 -0.958960
v -0.515444 1.778283 1.060048
v 0.000000 1.894081 1.459650
v 0.000000 1.886542 -1.162550
v -0.570292 1.115386 0.000000
v -0.505584 2.312088 0.000000
v 0.000000 2.517341 0.000000
v 0.000000 0.985991 0.000000
v -0.720000 1.699024 0.000000
v -0.182544 3.406066 1.372465
v 0.000000 3.406066 1.372465
v -0.201175 3.051567 1.538096
v 0.000000 3.014673 1.668838
v -0.125802 3.258691 1.910344
v 0.000000 3.291759 1.995069
v -0.105275 3.083814 1.948246
v 0.000000 3.050745 2.028467
v -0.184947 3.393576 1.522218
v 0.000000 3.415683 1.519274
v -0.174888 3.405840 1.382359
v -0.049920 3.405840 1.382359
v -0.049920 3.412424 1.509577
v -0.176533 3.397289 1.512128
v -0.219308 3.471656 1.383744
v -0.208631 3.610406 1.383744
v -0.213553 3.614778 1.510963
v -0.213262 3.465585 1.513514
v -0.111747 1.178283 0.836061
v -0.449127 1.178283 0.836061
v -0.111747 1.117308 0.457541
v -0.449127 1.117308 0.457541
v -0.470768 1.117308 -0.439409
v -0.470768 1.178283 -0.863701
v -0.118026 1.178283 -0.863701
v -0.118026 1.117308 -0.439409
v -0.175715 0.477683 0.839104
v -0.388030 0.477683 0.839104
v -0.140112 0.477683 0.556272
v -0.420098 0.477683 0.556272
v -0.401492 0.477683 -0.569909
v -0.437850 0.477683 -0.861825
v -0.151607 0.477683 -0.861825
v -0.184431 0.477683 -0.569909
v -0.174107 0.033566 1.087623
v -0.393048 0.033566 1.087623
v -0.111559 0.033566 0.662253
v -0.451358 0.033566 0.662253
v -0.391178 0.033566 -0.277653
v -0.448454 0.033566 -0.671454
v -0.138296 0.033566 -0.671454
v -0.191334 0.033566 -0.277653
vt 0.500000 0.375000
vt 0.625000 0.375000
vt 0.625000 0.500000
vt 0.500000 0.500000
vt 0.472447 0.609202
vt 0.315960 0.568241
vt 0.364455 0.337490
vt 0.502890 0.329556
vt 0.653922 0.510237
vt 0.373434 0.510237
vt 0.433096 0.456257
vt 0.619688 0.446794
vt 0.187584 0.522783
vt 0.256952 0.350535
vt 0.311918 0.540494
vt 0.357908 0.353416
vt 0.863792 0.562416
vt 0.839609 0.639278
vt 0.715379 0.608457
vt 0.519223 0.624459
vt 0.397161 0.402317
vt 0.715379 0.412475
vt 0.625440 0.631173
vt 0.620019 0.393783
vt 0.375000 0.375000
vt 0.375000 0.500000
vt 0.730216 0.394105
vt 0.798947 0.577532
vt 0.410077 0.495816
vt 0.407547 0.423658
vt 0.512656 0.339144
vt 0.642106 0.376439
vt 0.535027 0.614672
vt 0.386722 0.548843
vt 0.752730 0.472374
vt 0.875484 0.462106
vt 0.832161 0.704896
vt 0.694812 0.669873
vt 0.623135 0.502062
vt 0.671683 0.331374
vt 0.798667 0.423261
vt 0.762751 0.537613
vt 0.655600 0.648610
vt 0.318251 0.561666
vt 0.173887 0.832705
vt 0.128356 0.937430
vt 0.108346 0.946468
vt 0.024386 0.835475
vt 0.034117 0.780964
vt 0.209599 0.723908
vt 0.152947 0.717275
vt 0.174356 0.561370
vt 0.212539 0.590954
vt 0.636163 0.577124
vt 0.480905 0.577020
vt 0.491528 0.521964
vt 0.625717 0.521961
vt 0.166483 0.514315
vt 0.287017 0.479973
vt 0.181098 0.678714
vt 0.110103 0.714251
vt 0.636163 0.375336
vt 0.625715 0.383804
vt 0.478098 0.372094
vt 0.489060 0.381917
vt 0.375967 0.387114
vt 0.481590 0.288122
vt 0.481590 0.614222
vt 0.388235 0.480549
vt 0.321863 0.614005
vt 0.209976 0.528649
vt 0.231216 0.443364
vt 0.321863 0.300058
vt 0.493182 0.385568
vt 0.580126 0.389507
vt 0.580126 0.587088
vt 0.493239 0.581946
vt 0.483833 0.443040
vt 0.512297 0.331831
vt 0.845978 0.451457
vt 0.457503 0.342486
vt 0.502149 0.308226
vt 0.664832 0.355506
vt 0.471228 0.341996
vt 0.772947 0.397691
vt 0.612971 0.407097
vt 0.488768 0.387271
vt 0.277504 0.446968
vt 0.490279 0.506653
vt 0.471952 0.549158
vt 0.323070 0.535640
vt 0.788827 0.439776
vt 0.398459 0.330274
vt 0.592924 0.346125
vt 0.777344 0.392574
vt 0.464353 0.382816
vt 0.807945 0.446240
vt 0.742475 0.483227
vt 0.605638 0.450014
vt 0.500000 0.500000
vt 0.625000 0.500000
vt 0.472447 0.609202
vt 0.502890 0.329556
vt 0.364455 0.337490
vt 0.315960 0.568241
vt 0.653922 0.510237
vt 0.619688 0.446794
vt 0.433096 0.456257
vt 0.311918 0.540494
vt 0.839609 0.639278
vt 0.715379 0.608457
vt 0.519223 0.624459
vt 0.625440 0.631173
vt 0.620019 0.393783
vt 0.375000 0.500000
vt 0.410077 0.495816
vt 0.798947 0.577532
vt 0.512656 0.339144
vt 0.386722 0.548843
vt 0.535027 0.614672
vt 0.642106 0.376439
vt 0.752730 0.472374
vt 0.694812 0.669873
vt 0.623135 0.502062
vt 0.762751 0.537613
vt 0.798667 0.423261
vt 0.250000 0.500000
vt 0.437500 0.437500
vt 0.687500 0.562500
vt 0.750000 0.750000
vt 0.562500 0.812500
vt 0.375000 0.875000
vt 0.312500 0.687500
vt 0.750000 0.750000
vt 0.562500 0.812500
vt 0.318251 0.561666
vt 0.655600 0.648610
vt 0.173887 0.832705
vt 0.034117 0.780964
vt 0.024386 0.835475
vt 0.108346 0.946468
vt 0.128356 0.937430
vt 0.209599 0.723908
vt 0.212539 0.590954
vt 0.750000 0.750000
vt 0.750000 0.750000
vt 0.562500 0.812500
vt 0.625717 0.521961
vt 0.491528 0.521964
vt 0.181098 0.678714
vt 0.287017 0.479973
vt 0.636163 0.375336
vt 0.625715 0.383804
vt 0.489060 0.381917
vt 0.478098 0.372094
vt 0.375967 0.387114
vt 0.388235 0.480549
vt 0.481590 0.614222
vt 0.481590 0.288122
vt 0.321863 0.614005
vt 0.321863 0.300058
vt 0.231216 0.443364
vt 0.209976 0.528649
vt 0.493182 0.385568
vt 0.493239 0.581946
vt 0.580126 0.587088
vt 0.580126 0.389507
vt 0.512297 0.331831
vt 0.483833 0.443040
vt 0.845978 0.451457
vt 0.664832 0.355506
vt 0.502149 0.308226
vt 0.457503 0.342486
vt 0.488768 0.387271
vt 0.612971 0.407097
vt 0.323070 0.535640
vt 0.471952 0.549158
vt 0.490279 0.506653
vt 0.788827 0.439776
vt 0.777344 0.392574
vt 0.592924 0.346125
vt 0.398459 0.330274
vt 0.605638 0.450014
vt 0.742475 0.483227
vt 0.706389 0.412873
vt 0.623915 0.713153
vt 0.503536 0.740624
vt 0.491045 0.378225
vt 0.706389 0.412873
vt 0.623915 0.713153
vt 0.717870 0.522542
vt 0.799504 0.528777
vt 0.799309 0.664953
vt 0.717819 0.655627
vt 0.810971 0.553294
vt 0.811393 0.699600
vt 0.720598 0.694275
vt 0.719143 0.546097
vt 0.291133 0.593438
vt 0.179915 0.572908
vt 0.219806 0.396728
vt 0.297242 0.400096
vt 0.179791 0.484042
vt 0.294605 0.444465
vt 0.266401 0.660803
vt 0.188516 0.675962
vt 0.691387 0.489116
vt 0.648827 0.511806
vt 0.619655 0.288953
vt 0.673095 0.276775
vt 0.684057 0.475149
vt 0.641129 0.486202
vt 0.618549 0.268741
vt 0.670537 0.265104
vt 0.326536 0.362982
vt 0.412428 0.341217
vt 0.412428 0.600189
vt 0.347893 0.599014
vt 0.329911 0.349214
vt 0.431254 0.349400
vt 0.402355 0.633569
vt 0.339993 0.633455
vt 0.445900 0.396335
vt 0.335760 0.318437
vt 0.340958 0.611590
vt 0.410269 0.660612
vt 0.347803 0.475775
vt 0.435921 0.423174
vt 0.421666 0.655219
vt 0.350159 0.697904
vt 0.411908 0.587663
vt 0.335565 0.590375
vt 0.340093 0.335513
vt 0.403449 0.333263
vt 0.324440 0.629583
vt 0.413350 0.608473
vt 0.410948 0.320864
vt 0.344048 0.319636
vt 0.297994 0.605376
vt 0.354101 0.608520
vt 0.338207 0.737389
vt 0.302056 0.735363
vt 0.287513 0.589126
vt 0.348862 0.589126
vt 0.337533 0.742144
vt 0.298004 0.742144
vt 0.624409 0.433713
vt 0.655988 0.467534
vt 0.673549 0.263312
vt 0.629159 0.278870
vt 0.632993 0.449412
vt 0.663432 0.484856
vt 0.681758 0.271734
vt 0.638207 0.271941
vt 0.658079 0.498803
vt 0.698321 0.468108
vt 0.667223 0.262702
vt 0.626288 0.272708
vt 0.636847 0.471216
vt 0.673727 0.446918
vt 0.675074 0.269019
vt 0.632489 0.258450
vt 0.705986 0.538635
vt 0.658754 0.546517
vt 0.619319 0.263582
vt 0.663182 0.254946
vt 0.711581 0.471634
vt 0.645755 0.482888
vt 0.622730 0.270776
vt 0.665658 0.260414
vt 0.717870 0.522542
vt 0.717819 0.655627
vt 0.799309 0.664953
vt 0.799504 0.528777
vt 0.810971 0.553294
vt 0.719143 0.546097
vt 0.720598 0.694275
vt 0.811393 0.699600
vt 0.291133 0.593438
vt 0.297242 0.400096
vt 0.219806 0.396728
vt 0.179915 0.572908
vt 0.179791 0.484042
vt 0.188516 0.675962
vt 0.266401 0.660803
vt 0.294605 0.444465
vt 0.691387 0.489116
vt 0.673095 0.276775
vt 0.619655 0.288953
vt 0.648827 0.511806
vt 0.684057 0.475149
vt 0.670537 0.265104
vt 0.618549 0.268741
vt 0.641129 0.486202
vt 0.326536 0.362982
vt 0.347893 0.599014
vt 0.412428 0.600189
vt 0.412428 0.341217
vt 0.329911 0.349214
vt 0.339993 0.633455
vt 0.402355 0.633569
vt 0.431254 0.349400
vt 0.445900 0.396335
vt 0.410269 0.660612
vt 0.340958 0.611590
vt 0.335760 0.318437
vt 0.347803 0.475775
vt 0.350159 0.697904
vt 0.421666 0.655219
vt 0.435921 0.423174
vt 0.411908 0.587663
vt 0.403449 0.333263
vt 0.340093 0.335513
vt 0.335565 0.590375
vt 0.324440 0.629583
vt 0.344048 0.319636
vt 0.410948 0.320864
vt 0.413350 0.608473
vt 0.297994 0.605376
vt 0.302056 0.735363
vt 0.338207 0.737389
vt 0.354101 0.608520
vt 0.287513 0.589126
vt 0.298004 0.742144
vt 0.337533 0.742144
vt 0.348862 0.589126
vt 0.624409 0.433713
vt 0.629159 0.278870
vt 0.673549 0.263312
vt 0.655988 0.467534
vt 0.632993 0.449412
vt 0.638207 0.271941
vt 0.681758 0.271734
vt 0.663432 0.484856
vt 0.658079 0.498803
vt 0.626288 0.272708
vt 0.667223 0.262702
vt 0.698321 0.468108
vt 0.636847 0.471216
vt 0.632489 0.258450
vt 0.675074 0.269019
vt 0.673727 0.446918
vt 0.705986 0.538635
vt 0.663182 0.254946
vt 0.619319 0.263582
vt 0.658754 0.546517
vt 0.711581 0.471634
vt 0.665658 0.260414
vt 0.622730 0.270776
vt 0.645755 0.482888
vn 0.3656 0.4410 -0.8197
vn 0.9390 0.3106 0.1477
vn 0.0647 -0.4555 0.8879
vn 0.2838 0.9521 0.1141
vn 0.3489 0.4658 -0.8132
vn 0.3027 -0.5255 0.7951
vn 0.9821 -0.1325 0.1337
vn 0.2552 -0.1943 -0.9472
vn 0.5767 -0.1546 0.8022
vn 0.9680 -0.2159 -0.1278
vn 0.3253 0.9388 -0.1137
vn 0.1373 -0.9798 -0.1457
vn 0.9398 0.3273 -0.0980
vn 0.9803 0.1908 0.0504
vn 0.9882 0.0188 0.1523
vn 0.2415 0.9249 0.2936
vn 0.0350 0.9976 -0.0590
vn 0.2996 -0.9463 0.1213
vn 0.0000 0.9997 0.0229
vn 0.1104 0.9610 0.2536
vn 0.2107 0.9750 0.0703
vn 0.0059 0.0058 -1.0000
vn -0.0273 0.0100 0.9996
vn -0.7838 0.6209 -0.0116
vn 0.1397 -0.9797 0.1441
vn 0.7788 -0.6069 0.1585
vn -0.1134 -0.9648 0.2371
vn 0.0859 -0.6555 -0.7503
vn 0.7989 -0.5862 -0.1347
vn -0.2296 -0.9429 -0.2413
vn -0.3656 0.4410 -0.8197
vn -0.9390 0.3106 0.1477
vn -0.0647 -0.4555 0.8879
vn -0.2838 0.9521 0.1141
vn -0.3489 0.4658 -0.8132
vn -0.3027 -0.5255 0.7951
vn -0.9821 -0.1325 0.1337
vn -0.2552 -0.1943 -0.9472
vn -0.5767 -0.1546 0.8022
vn -0.9680 -0.2159 -0.1278
vn -0.3253 0.9388 -0.1137
vn -0.1373 -0.9798 -0.1457
vn -0.9398 0.3273 -0.0980
vn 1.0000 0.0000 0.0000
vn -0.9803 0.1908 0.0504
vn -0.9882 0.0188 0.1523
vn -0.2415 0.9249 0.2936
vn -0.0350 0.9976 -0.0590
vn -0.2996 -0.9463 0.1213
vn -0.1104 0.9610 0.2536
vn -0.2107 0.9750 0.0703
vn -0.0059 0.0058 -1.0000
vn 0.0273 0.0100 0.9996
vn 0.7838 0.6209 -0.0116
vn -0.1397 -0.9797 0.1441
vn -0.7788 -0.6069 0.1585
vn 0.1134 -0.9648 0.2371
vn -0.0859 -0.6555 -0.7503
vn -0.7989 -0.5862 -0.1347
vn 0.2296 -0.9429 -0.2413
vn 0.5774 0.1102 0.8090
vn -0.5774 0.1102 0.8090
vn 0.8556 -0.5174 -0.0146
vn 0.9993 0.0361 0.0046
vn 0.9958 -0.0801 0.0437
vn -0.9962 -0.0781 0.0390
vn 0.0000 -0.2321 -0.9727
vn 0.0000 -0.3940 -0.9191
vn 0.9966 -0.0629 0.0541
vn 0.0000 -0.1999 0.9798
vn 0.0000 0.0043 1.0000
vn 0.0000 -0.0027 -1.0000
vn 0.0000 -0.1526 -0.9883
vn -0.9962 -0.0641 0.0595
vn 0.0000 -1.0000 0.0000
vn -0.9867 0.0881 0.1367
vn -0.9895 0.0745 0.1239
vn 0.9881 0.0736 0.1349
vn 0.9879 0.0907 0.1261
vn 0.0000 0.4883 0.8727
vn 0.0000 0.5497 0.8354
vn -0.8556 -0.5174 -0.0146
vn -0.9993 0.0361 0.0046
vn -0.9958 -0.0801 0.0437
vn 0.9962 -0.0781 0.0390
vn -0.9966 -0.0629 0.0541
vn 0.9962 -0.0641 0.0595
vn 0.9867 0.0881 0.1367
vn 0.9895 0.0745 0.1239
vn -0.9881 0.0736 0.1349
vn -0.9879 0.0907 0.1261
usemtl alpaca1
s off
f 58/1/1 52/2/1 4/3/1 5/4/1
f 9/5/2 8/6/2 2/7/2 6/8/2
f 1/9/3 53/10/3 23/11/3 24/12/3
f 8/6/4 61/13/4 54/14/4 2/7/4
f 2/15/5 54/16/5 65/17/5 10/18/5
f 1/19/6 6/20/6 57/21/6 53/22/6
f 7/23/7 9/5/7 6/8/7 1/24/7
f 51/25/8 58/1/8 5/4/8 3/26/8
f 57/27/9 6/28/9 11/29/9 67/30/9
f 3/31/10 5/32/10 9/33/10 7/34/10
f 4/35/11 52/36/11 61/37/11 8/38/11
f 7/39/12 62/40/12 30/41/12 27/42/12
f 5/32/13 4/35/13 8/38/13 9/33/13
f 6/28/14 2/43/14 10/44/14 11/29/14
f 11/45/15 10/46/15 14/47/15 12/48/15 13/49/15
f 14/50/16 73/51/16 69/52/16 12/53/16
f 65/54/17 73/55/17 17/56/17 16/57/17
f 67/58/18 11/59/18 13/60/18 71/61/18
f 10/62/19 65/54/19 16/57/19 15/63/19
f 73/55/20 14/64/20 18/65/20 17/56/20
f 14/64/21 10/62/21 15/63/21 18/65/21
f 15/66/22 16/67/22 20/68/22 19/69/22
f 17/70/23 18/71/23 22/72/23 21/73/23
f 16/74/24 17/75/24 21/76/24 20/77/24
f 62/40/25 7/39/25 26/78/25 25/79/25
f 7/80/26 1/81/26 24/82/26 26/83/26
f 53/84/27 62/85/27 25/86/27 23/87/27
f 51/88/28 3/89/28 28/90/28 29/91/28
f 3/92/29 7/93/29 27/94/29 28/95/29
f 62/96/30 51/97/30 29/98/30 30/99/30
f 58/1/31 55/100/31 50/101/31 52/2/31
f 63/102/32 56/103/32 48/104/32 60/105/32
f 47/106/33 83/107/33 82/108/33 53/10/33
f 60/105/34 48/104/34 54/14/34 61/13/34
f 48/109/35 64/110/35 65/17/35 54/16/35
f 47/111/36 53/22/36 57/21/36 56/112/36
f 59/113/37 47/114/37 56/103/37 63/102/37
f 51/25/38 49/115/38 55/100/38 58/1/38
f 57/27/39 67/30/39 66/116/39 56/117/39
f 49/118/40 59/119/40 63/120/40 55/121/40
f 50/122/41 60/123/41 61/37/41 52/36/41
f 59/124/42 86/125/42 89/126/42 62/40/42
f 55/121/43 63/120/43 60/123/43 50/122/43
f 51/127/44 58/128/44 52/2/44 61/129/44 54/130/44 57/131/44 53/132/44 62/133/44
f 54/130/44 65/134/44 67/135/44 57/131/44
f 56/117/45 66/116/45 64/136/45 48/137/45
f 66/138/46 70/139/46 68/140/46 72/141/46 64/142/46
f 72/143/47 68/144/47 69/52/47 73/51/47
f 65/134/44 73/145/44 69/146/44 71/147/44 67/135/44
f 65/54/48 75/148/48 76/149/48 73/55/48
f 67/58/49 71/61/49 70/150/49 66/151/49
f 64/152/19 74/153/19 75/148/19 65/54/19
f 73/55/50 76/149/50 77/154/50 72/155/50
f 72/155/51 77/154/51 74/153/51 64/152/51
f 74/156/52 78/157/52 79/158/52 75/159/52
f 76/160/53 80/161/53 81/162/53 77/163/53
f 75/164/54 79/165/54 80/166/54 76/167/54
f 62/40/55 84/168/55 85/169/55 59/124/55
f 59/170/56 85/171/56 83/172/56 47/173/56
f 53/84/57 82/174/57 84/175/57 62/85/57
f 51/88/58 88/176/58 87/177/58 49/178/58
f 49/179/59 87/180/59 86/181/59 59/182/59
f 62/96/60 89/183/60 88/184/60 51/97/60
usemtl alpaca2
f 13/185/61 12/186/61 69/187/61 71/188/61
f 70/189/62 71/188/62 69/187/62 68/190/62
usemtl alpaca3
f 18/191/63 15/192/63 19/193/63 22/194/63
f 19/195/64 20/196/64 21/197/64 22/198/64
f 28/199/65 27/200/65 35/201/65 36/202/65
f 30/203/66 29/204/66 37/205/66 38/206/66
f 33/207/67 34/208/67 42/209/67 41/210/67
f 37/211/68 36/212/68 44/213/68 45/214/68
f 26/215/69 24/216/69 32/217/69 34/218/69
f 27/219/70 30/220/70 38/221/70 35/222/70
f 24/223/71 23/224/71 31/225/71 32/226/71
f 29/227/72 28/228/72 36/229/72 37/230/72
f 25/231/73 26/232/73 34/233/73 33/234/73
f 23/235/74 25/236/74 33/237/74 31/238/74
f 41/239/75 42/240/75 40/241/75 39/242/75
f 45/243/75 44/244/75 43/245/75 46/246/75
f 31/247/76 33/248/76 41/249/76 39/250/76
f 38/251/77 37/252/77 45/253/77 46/254/77
f 36/255/78 35/256/78 43/257/78 44/258/78
f 34/259/79 32/260/79 40/261/79 42/262/79
f 32/263/80 31/264/80 39/265/80 40/266/80
f 35/267/81 38/268/81 46/269/81 43/270/81
f 77/271/82 81/272/82 78/273/82 74/274/82
f 78/275/83 81/276/83 80/277/83 79/278/83
f 87/279/84 95/280/84 94/281/84 86/282/84
f 89/283/85 97/284/85 96/285/85 88/286/85
f 92/287/67 100/288/67 101/289/67 93/290/67
f 96/291/68 104/292/68 103/293/68 95/294/68
f 85/295/86 93/296/86 91/297/86 83/298/86
f 86/299/70 94/300/70 97/301/70 89/302/70
f 83/303/71 91/304/71 90/305/71 82/306/71
f 88/307/72 96/308/72 95/309/72 87/310/72
f 84/311/73 92/312/73 93/313/73 85/314/73
f 82/315/87 90/316/87 92/317/87 84/318/87
f 100/319/75 98/320/75 99/321/75 101/322/75
f 104/323/75 105/324/75 102/325/75 103/326/75
f 90/327/88 98/328/88 100/329/88 92/330/88
f 97/331/89 105/332/89 104/333/89 96/334/89
f 95/335/90 103/336/90 102/337/90 94/338/90
f 93/339/91 101/340/91 99/341/91 91/342/91
f 91/343/80 99/344/80 98/345/80 90/346/80
f 94/347/81 102/348/81 105/349/81 97/350/81
