# GGBot / ggbot.net / 2021-07-25

mtllib Car_Shadow.mtl

#
# object Car_Shadow
#

v  -0.800445 0.010000 2.556952
v  0.800445 0.010000 2.556952
v  0.800445 0.010000 -2.556952
v  -0.800445 0.010000 -2.556952
# 4 vertices

vn 0.000000 1.000000 -0.000000
# 1 vertex normals

vt 0.000000 0.000000 0.000000
vt 1.000000 0.000000 0.000000
vt 1.000000 1.000000 0.000000
vt 0.000000 1.000000 0.000000
# 4 texture coords

g Car_Shadow
usemtl car_shadow_mat
s off
f 1/1/1 2/2/1 3/3/1 4/4/1 
# 1 polygons

