# Blender v2.91.0 OBJ File: 'capybara.blend'
# www.blender.org
mtllib capybara.mtl
o capybara_Cube.001
v 0.663245 2.145801 0.000000
v 0.725630 0.847541 0.000000
v 0.548677 1.002327 1.163914
v 0.541662 2.419725 1.440516
v 0.652335 1.040297 -1.159840
v 0.663245 2.249825 -0.956603
v 0.842328 1.237019 0.000000
v 0.842328 1.608305 -1.367881
v 0.663496 1.558854 1.375865
v 0.296755 2.286309 2.501209
v 0.304841 1.705922 2.413498
v 0.350597 2.090783 2.601232
v 0.621966 1.220424 1.425919
v 0.609707 0.401263 1.500991
v 0.585980 0.381653 1.248054
v 0.374198 0.364337 1.212324
v 0.437225 0.376561 1.496931
v 0.591258 0.052271 1.794614
v 0.643756 0.040404 1.459359
v 0.344732 0.047149 1.423629
v 0.424581 0.057166 1.790553
v 0.353113 0.895165 1.234149
v 0.257807 0.772319 1.497888
v 0.688982 0.943919 -0.834555
v 0.694441 0.318546 -1.044062
v 0.706831 0.368008 -1.264184
v 0.505585 0.391278 -1.343685
v 0.374440 0.341445 -1.098681
v 0.646769 0.031504 -0.775282
v 0.776787 0.080967 -1.087998
v 0.451385 0.104236 -1.197236
v 0.407531 0.054403 -0.829901
v 0.295210 0.754745 -0.993928
v 0.318185 0.778485 -1.106185
v 0.739764 2.093825 -1.315066
v 0.454317 2.390596 1.976192
v 0.383170 2.168791 1.185993
v 0.393706 2.447725 1.554790
v 0.216439 2.483490 1.513811
v 0.398166 2.445135 1.823238
v 0.216439 2.489218 1.822742
v 0.392979 2.481336 1.594373
v 0.386216 2.602531 1.566958
v 0.393834 2.477993 1.773970
v 0.388950 2.605217 1.773638
v 0.284019 2.560955 1.540385
v 0.285386 2.565162 1.798190
v 0.000000 0.491786 0.000000
v 0.000000 2.265726 0.000000
v -0.663245 2.145801 0.000000
v -0.725630 0.847541 0.000000
v -0.548677 1.002327 1.163914
v -0.541662 2.419725 1.440516
v -0.652335 1.040297 -1.159840
v -0.663245 2.249825 -0.956603
v 0.000000 0.908337 -1.163914
v 0.000000 2.383909 -0.951250
v 0.000000 0.666736 1.123472
v 0.000000 2.509136 1.446200
v -0.842328 1.237019 0.000000
v -0.842328 1.608305 -1.367881
v -0.663496 1.558854 1.375865
v 0.000000 1.336464 1.624927
v 0.000000 1.698779 -1.707527
v -0.296755 2.286309 2.501209
v 0.000000 2.409452 2.504485
v -0.304841 1.705922 2.413498
v 0.000000 1.595260 2.504485
v 0.000000 2.120930 2.691848
v -0.350597 2.090783 2.601232
v 0.000000 0.886573 1.451141
v -0.621966 1.220424 1.425919
v -0.609707 0.401263 1.500991
v -0.585980 0.381653 1.248054
v -0.374198 0.364337 1.212324
v -0.437225 0.376561 1.496931
v -0.591258 0.052271 1.794614
v -0.643756 0.040404 1.459359
v -0.344732 0.047149 1.423629
v -0.424581 0.057166 1.790553
v -0.353113 0.895165 1.234149
v -0.257807 0.772319 1.497888
v 0.000000 0.609701 -0.889174
v -0.688982 0.943919 -0.834555
v -0.694441 0.318546 -1.044062
v -0.706831 0.368008 -1.264184
v -0.505585 0.391278 -1.343685
v -0.374440 0.341445 -1.098681
v -0.646769 0.031504 -0.775282
v -0.776787 0.080967 -1.087998
v -0.451385 0.104236 -1.197236
v -0.407531 0.054403 -0.829901
v -0.295210 0.754745 -0.993928
v -0.318185 0.778485 -1.106185
v -0.739764 2.093825 -1.315066
v 0.000000 2.176341 -1.550186
v -0.454317 2.390596 1.976192
v 0.000000 2.523457 1.975343
v 0.000000 2.387431 1.252263
v -0.383170 2.168791 1.185993
v -0.393706 2.447725 1.554790
v -0.216439 2.483490 1.513811
v -0.398166 2.445135 1.823238
v -0.216439 2.489218 1.822742
v -0.392979 2.481336 1.594373
v -0.386216 2.602531 1.566958
v -0.393834 2.477993 1.773970
v -0.388950 2.605217 1.773638
v -0.284019 2.560955 1.540385
v -0.285386 2.565162 1.798190
vt 0.673394 0.342457
vt 0.607977 0.699932
vt 0.585798 0.537524
vt 0.416506 0.501922
vt 0.412043 0.346851
vt 0.726236 0.675095
vt 0.624927 0.744446
vt 0.544163 0.588666
vt 0.627304 0.496043
vt 0.888476 0.521817
vt 0.872215 0.837075
vt 0.526833 0.846025
vt 0.424808 0.898081
vt 0.491786 0.611899
vt 0.732257 0.425793
vt 0.726450 0.663652
vt 0.437413 0.627334
vt 0.454190 0.438654
vt 0.806942 0.448856
vt 0.860556 0.639567
vt 0.498490 0.526476
vt 0.498529 0.397376
vt 0.719396 0.423446
vt 0.485625 0.868487
vt 0.512193 0.611882
vt 0.911879 0.653953
vt 0.872047 0.818262
vt 0.535784 0.569747
vt 0.792214 0.521100
vt 0.668902 0.603255
vt 0.567803 0.622622
vt 0.879507 0.557361
vt 0.904249 0.851146
vt 0.557814 0.886409
vt 0.531827 0.593958
vt 0.867141 0.612472
vt 0.856564 0.766165
vt 0.764844 0.820732
vt 0.518554 0.795784
vt 0.513256 0.509610
vt 0.769246 0.486035
vt 0.692153 0.574985
vt 0.692153 0.198453
vt 0.760003 0.199295
vt 0.887891 0.383169
vt 0.477438 0.495654
vt 0.552612 0.418460
vt 0.880482 0.491661
vt 0.758042 0.414635
vt 0.388201 0.612735
vt 0.424310 0.840182
vt 0.128552 0.760362
vt 0.108805 0.620416
vt 0.421057 0.657030
vt 0.315271 0.948456
vt 0.169468 0.891302
vt 0.062691 0.804794
vt 0.063563 0.715557
vt 0.151371 0.608313
vt 0.584770 0.415415
vt 0.805733 0.595823
vt 0.771643 0.750236
vt 0.551935 0.635206
vt 0.781047 0.580536
vt 0.628064 0.460720
vt 0.683095 0.382483
vt 0.711574 0.174737
vt 0.751715 0.175198
vt 0.654540 0.546001
vt 0.447291 0.649597
vt 0.480445 0.354698
vt 0.654540 0.350403
vt 0.976484 0.535083
vt 0.667514 0.567605
vt 0.698220 0.208194
vt 0.754535 0.203791
vt 0.768430 0.507727
vt 0.660008 0.751760
vt 0.564012 0.845904
vt 0.495693 0.600535
vt 0.606132 0.550458
vt 0.950943 0.448812
vt 0.932082 0.673725
vt 0.751814 0.526250
vt 0.659196 0.498181
vt 0.696072 0.192249
vt 0.758023 0.203121
vt 0.674398 0.594463
vt 0.524926 0.523096
vt 0.615618 0.397796
vt 0.652219 0.432055
vt 0.867410 0.551571
vt 0.667735 0.538021
vt 0.689493 0.195369
vt 0.754701 0.202439
vt 0.783868 0.445638
vt 0.700413 0.183150
vt 0.752042 0.191555
vt 0.789338 0.472018
vt 0.685554 0.446283
vt 0.443368 0.510499
vt 0.722783 0.509478
vt 0.666744 0.774033
vt 0.436929 0.681893
vt 0.724128 0.526670
vt 0.724128 0.785830
vt 0.478250 0.768049
vt 0.478173 0.562119
vt 0.620438 0.882499
vt 0.389322 0.799023
vt 0.375354 0.650968
vt 0.620438 0.609689
vt 0.602611 0.445679
vt 0.602611 0.757446
vt 0.476689 0.735721
vt 0.477278 0.475563
vt 0.792214 0.885150
vt 0.669341 0.747237
vt 0.521867 0.880984
vt 0.564669 0.745203
vt 0.513698 0.580345
vt 0.513698 0.820723
vt 0.415573 0.750956
vt 0.372519 0.669810
vt 0.466592 0.577714
vt 0.613069 0.409107
vt 0.613069 0.606518
vt 0.560974 0.605580
vt 0.460815 0.546049
vt 0.531135 0.460873
vt 0.570030 0.537156
vt 0.570030 0.869094
vt 0.457467 0.839418
vt 0.459599 0.573304
vt 0.673394 0.342457
vt 0.412043 0.346851
vt 0.416506 0.501922
vt 0.585798 0.537524
vt 0.627304 0.496043
vt 0.544163 0.588666
vt 0.888476 0.521817
vt 0.491786 0.611899
vt 0.424808 0.898081
vt 0.526833 0.846025
vt 0.872215 0.837075
vt 0.312500 0.687500
vt 0.281250 0.593750
vt 0.250000 0.500000
vt 0.362500 0.462500
vt 0.487500 0.837500
vt 0.431250 0.856250
vt 0.375000 0.875000
vt 0.437413 0.627334
vt 0.726450 0.663652
vt 0.806942 0.448856
vt 0.719396 0.423446
vt 0.498529 0.397376
vt 0.498490 0.526476
vt 0.860556 0.639567
vt 0.485625 0.868487
vt 0.872047 0.818262
vt 0.535784 0.569747
vt 0.567803 0.622622
vt 0.668902 0.603255
vt 0.879507 0.557361
vt 0.531827 0.593958
vt 0.867141 0.612472
vt 0.513256 0.509610
vt 0.518554 0.795784
vt 0.764844 0.820732
vt 0.856564 0.766165
vt 0.493750 0.418750
vt 0.625000 0.375000
vt 0.687500 0.562500
vt 0.718750 0.656250
vt 0.750000 0.750000
vt 0.769246 0.486035
vt 0.760003 0.199295
vt 0.692153 0.198453
vt 0.692153 0.574985
vt 0.887891 0.383169
vt 0.552612 0.418460
vt 0.477438 0.495654
vt 0.758042 0.414635
vt 0.128552 0.760362
vt 0.424310 0.840182
vt 0.750000 0.750000
vt 0.750000 0.750000
vt 0.618750 0.793750
vt 0.487500 0.837500
vt 0.421057 0.657030
vt 0.151371 0.608313
vt 0.063563 0.715557
vt 0.062691 0.804794
vt 0.169468 0.891302
vt 0.315271 0.948456
vt 0.771643 0.750236
vt 0.805733 0.595823
vt 0.781047 0.580536
vt 0.751715 0.175198
vt 0.711574 0.174737
vt 0.683095 0.382483
vt 0.654540 0.350403
vt 0.480445 0.354698
vt 0.768430 0.507727
vt 0.754535 0.203791
vt 0.698220 0.208194
vt 0.667514 0.567605
vt 0.660008 0.751760
vt 0.606132 0.550458
vt 0.495693 0.600535
vt 0.564012 0.845904
vt 0.932082 0.673725
vt 0.751814 0.526250
vt 0.758023 0.203121
vt 0.696072 0.192249
vt 0.659196 0.498181
vt 0.652219 0.432055
vt 0.615618 0.397796
vt 0.783868 0.445638
vt 0.754701 0.202439
vt 0.689493 0.195369
vt 0.667735 0.538021
vt 0.700413 0.183150
vt 0.685554 0.446283
vt 0.789338 0.472018
vt 0.752042 0.191555
vt 0.443368 0.510499
vt 0.436929 0.681893
vt 0.724128 0.526670
vt 0.478173 0.562119
vt 0.620438 0.882499
vt 0.620438 0.609689
vt 0.602611 0.445679
vt 0.477278 0.475563
vt 0.476689 0.735721
vt 0.602611 0.757446
vt 0.669341 0.747237
vt 0.521867 0.880984
vt 0.564669 0.745203
vt 0.513698 0.580345
vt 0.466592 0.577714
vt 0.372519 0.669810
vt 0.415573 0.750956
vt 0.513698 0.820723
vt 0.613069 0.409107
vt 0.531135 0.460873
vt 0.460815 0.546049
vt 0.560974 0.605580
vt 0.613069 0.606518
vt 0.570030 0.537156
vt 0.459599 0.573304
vt 0.457467 0.839418
vt 0.570030 0.869094
vt 0.841102 0.309713
vt 0.845867 0.473279
vt 0.721415 0.489274
vt 0.729455 0.285634
vt 0.702620 0.238364
vt 0.609338 0.233894
vt 0.609438 0.062932
vt 0.699360 0.058724
vt 0.837412 0.571723
vt 0.743101 0.612803
vt 0.766852 0.200289
vt 0.581260 0.192987
vt 0.572631 0.096842
vt 0.766852 0.025876
vt 0.672090 0.243040
vt 0.575234 0.245954
vt 0.540553 0.056439
vt 0.675940 0.061114
vt 0.667247 0.241319
vt 0.550068 0.256768
vt 0.608269 0.105018
vt 0.758827 0.082627
vt 0.798655 0.247307
vt 0.675991 0.245305
vt 0.547011 0.056944
vt 0.710392 0.062954
vt 0.750054 0.229375
vt 0.594359 0.237084
vt 0.632615 0.088022
vt 0.750054 0.075416
vt 0.707917 0.083552
vt 0.707917 0.211305
vt 0.588066 0.203823
vt 0.579906 0.112712
vt 0.787012 0.246520
vt 0.665710 0.237037
vt 0.589137 0.050355
vt 0.781400 0.053279
vt 0.728587 0.245495
vt 0.615246 0.253003
vt 0.618945 0.078438
vt 0.752349 0.075360
vt 0.812295 0.246850
vt 0.672328 0.239938
vt 0.466015 0.098795
vt 0.676798 0.072437
vt 0.819900 0.330666
vt 0.836741 0.450705
vt 0.671305 0.444838
vt 0.676409 0.320405
vt 0.634773 0.279248
vt 0.833157 0.269925
vt 0.811560 0.331164
vt 0.678542 0.334823
vt 0.841102 0.309713
vt 0.845867 0.473279
vt 0.702620 0.238364
vt 0.699360 0.058724
vt 0.609438 0.062932
vt 0.609338 0.233894
vt 0.837412 0.571723
vt 0.766852 0.200289
vt 0.766852 0.025876
vt 0.572631 0.096842
vt 0.581260 0.192987
vt 0.672090 0.243040
vt 0.675940 0.061114
vt 0.540553 0.056439
vt 0.575234 0.245954
vt 0.667247 0.241319
vt 0.758827 0.082627
vt 0.608269 0.105018
vt 0.550068 0.256768
vt 0.798655 0.247307
vt 0.710392 0.062954
vt 0.547011 0.056944
vt 0.675991 0.245305
vt 0.750054 0.229375
vt 0.750054 0.075416
vt 0.632615 0.088022
vt 0.594359 0.237084
vt 0.707917 0.083552
vt 0.579906 0.112712
vt 0.588066 0.203823
vt 0.707917 0.211305
vt 0.787012 0.246520
vt 0.781400 0.053279
vt 0.589137 0.050355
vt 0.665710 0.237037
vt 0.728587 0.245495
vt 0.752349 0.075360
vt 0.618945 0.078438
vt 0.615246 0.253003
vt 0.812295 0.246850
vt 0.676798 0.072437
vt 0.466015 0.098795
vt 0.672328 0.239938
vt 0.819900 0.330666
vt 0.676409 0.320405
vt 0.671305 0.444838
vt 0.836741 0.450705
vt 0.634773 0.279248
vt 0.678542 0.334823
vt 0.811560 0.331164
vt 0.833157 0.269925
vn -0.0972 -0.4840 0.8697
vn 0.3545 0.2352 -0.9050
vn 0.9545 0.2947 0.0448
vn 0.4666 -0.8696 0.1615
vn 0.9497 -0.2979 -0.0962
vn 0.3065 0.9516 -0.0213
vn 0.1747 0.9815 -0.0785
vn 0.1873 0.9757 0.1136
vn 0.9759 0.2122 0.0502
vn 0.9830 -0.0032 -0.1837
vn 0.9516 -0.2635 0.1581
vn 0.2077 -0.4957 -0.8433
vn 0.3945 -0.8812 0.2604
vn 0.9693 0.0341 0.2436
vn 0.2729 -0.1632 0.9481
vn 0.0209 0.1162 0.9930
vn 0.1353 -0.9740 0.1815
vn 0.0498 -0.2513 -0.9666
vn -0.9731 -0.2081 -0.0993
vn 0.4390 -0.8905 -0.1200
vn 0.9981 0.0534 -0.0301
vn -0.0301 -0.7671 -0.6408
vn -0.0427 0.1314 -0.9904
vn -0.9017 -0.1232 -0.4144
vn 0.1970 0.9217 -0.3342
vn 0.3141 0.9193 0.2373
vn 0.1885 0.7216 -0.6662
vn -0.7469 0.6648 -0.0099
vn 0.1324 0.9909 -0.0237
vn 0.3618 0.9293 0.0739
vn 0.2622 0.9440 0.2003
vn 0.3811 0.1040 -0.9186
vn 0.2561 0.2798 0.9253
vn -0.3687 0.9295 -0.0105
vn 0.0972 -0.4840 0.8697
vn -0.3545 0.2352 -0.9050
vn -0.9545 0.2947 0.0448
vn 1.0000 0.0000 0.0000
vn -0.4666 -0.8696 0.1615
vn -0.9497 -0.2979 -0.0962
vn -0.3065 0.9516 -0.0213
vn -0.1747 0.9815 -0.0785
vn -0.1873 0.9757 0.1136
vn -0.9759 0.2122 0.0502
vn -0.9830 -0.0032 -0.1837
vn -0.9516 -0.2635 0.1581
vn -0.2077 -0.4957 -0.8433
vn -0.3945 -0.8812 0.2604
vn -0.9693 0.0341 0.2436
vn -0.2729 -0.1632 0.9481
vn -0.0209 0.1162 0.9930
vn -0.1353 -0.9740 0.1815
vn -0.0498 -0.2513 -0.9666
vn 0.9731 -0.2081 -0.0993
vn -0.4390 -0.8905 -0.1200
vn -0.9981 0.0534 -0.0301
vn 0.0301 -0.7671 -0.6408
vn 0.0427 0.1314 -0.9904
vn 0.9017 -0.1232 -0.4144
vn -0.1970 0.9217 -0.3342
vn -0.3141 0.9193 0.2373
vn -0.1885 0.7216 -0.6662
vn 0.7469 0.6648 -0.0099
vn -0.1324 0.9909 -0.0237
vn -0.3618 0.9293 0.0739
vn -0.2622 0.9440 0.2003
vn -0.3812 0.1040 -0.9186
vn -0.2561 0.2798 0.9253
vn 0.3687 0.9295 -0.0105
vn 0.2900 -0.3770 0.8797
vn -0.0565 0.6605 0.7487
vn 0.2413 0.5151 0.8224
vn -0.0277 -0.9991 0.0322
vn 0.1281 -0.5318 -0.8371
vn -0.9538 0.2230 0.2015
vn 0.9951 0.0888 0.0439
vn -0.0860 0.6821 0.7262
vn -0.0362 -0.9875 -0.1534
vn 0.2613 -0.4674 -0.8445
vn -0.9375 -0.1806 -0.2973
vn 0.9185 0.2639 0.2945
vn 0.9989 0.0458 -0.0092
vn 0.9972 0.0743 -0.0108
vn -0.2900 -0.3770 0.8797
vn 0.0565 0.6605 0.7487
vn -0.2413 0.5151 0.8224
vn 0.0277 -0.9991 0.0322
vn -0.1281 -0.5318 -0.8371
vn 0.9538 0.2230 0.2015
vn -0.9951 0.0888 0.0439
vn 0.0860 0.6821 0.7262
vn 0.0362 -0.9875 -0.1534
vn -0.2613 -0.4674 -0.8445
vn 0.9375 -0.1806 -0.2973
vn -0.9185 0.2639 0.2945
vn -0.9989 0.0458 -0.0092
vn -0.9972 0.0743 -0.0108
usemtl capybara1
s off
f 24/1/1 83/2/1 33/3/1 28/4/1 25/5/1
f 64/6/2 96/7/2 35/8/2 8/9/2
f 7/10/3 1/11/3 37/12/3 4/13/3 9/14/3
f 48/15/4 2/16/4 3/17/4 58/18/4
f 5/19/5 8/20/5 7/21/5 2/22/5 24/23/5
f 1/24/6 49/25/6 99/26/6 37/27/6
f 4/28/7 59/29/7 39/30/7 38/31/7
f 6/32/8 57/33/8 49/34/8 1/35/8
f 8/36/9 35/37/9 6/38/9 1/39/9 7/40/9
f 3/41/10 13/42/10 14/43/10 15/44/10
f 2/45/11 7/10/11 9/14/11 13/46/11 3/47/11
f 56/48/12 64/6/12 8/9/12 5/49/12
f 63/50/13 9/51/13 11/52/13 68/53/13
f 9/54/14 4/55/14 36/56/14 10/57/14 12/58/14 11/59/14
f 71/60/15 13/61/15 9/62/15 63/63/15
f 13/64/16 71/65/16 23/66/16 17/67/16 14/68/16
f 71/69/17 58/70/17 22/71/17 23/72/17
f 58/73/18 3/74/18 15/75/18 16/76/18 22/77/18
f 23/78/19 22/79/19 16/80/19 17/81/19
f 83/82/20 24/83/20 2/16/20 48/15/20
f 5/84/21 24/85/21 25/86/21 26/87/21
f 83/88/22 56/89/22 34/90/22 33/91/22
f 56/92/23 5/93/23 26/94/23 27/95/23 34/96/23
f 33/97/24 34/98/24 27/99/24 28/100/24
f 35/101/25 96/102/25 57/103/25 6/104/25
f 36/105/26 98/106/26 66/107/26 10/108/26
f 37/109/27 99/110/27 59/111/27 4/112/27
f 39/113/28 41/114/28 47/115/28 46/116/28
f 59/29/29 98/117/29 41/118/29 39/30/29
f 36/119/30 4/28/30 38/31/30 40/120/30
f 98/117/31 36/119/31 40/120/31 41/118/31
f 38/121/32 39/122/32 46/123/32 43/124/32 42/125/32
f 41/126/33 40/127/33 44/128/33 45/129/33 47/130/33
f 46/131/34 47/132/34 45/133/34 43/134/34
f 84/135/35 85/136/35 88/137/35 93/138/35 83/2/35
f 64/6/36 61/139/36 95/140/36 96/7/36
f 60/141/37 62/142/37 53/143/37 100/144/37 50/145/37
f 48/146/38 83/147/38 56/148/38 64/149/38 63/150/38 71/151/38 58/152/38
f 48/15/39 58/18/39 52/153/39 51/154/39
f 54/155/40 84/156/40 51/157/40 60/158/40 61/159/40
f 50/160/41 100/161/41 99/26/41 49/25/41
f 53/162/42 101/163/42 102/164/42 59/29/42
f 55/165/43 50/166/43 49/34/43 57/33/43
f 61/167/44 60/168/44 50/169/44 55/170/44 95/171/44
f 64/149/38 96/172/38 57/173/38 49/174/38 99/175/38 59/176/38 63/150/38
f 52/177/45 74/178/45 73/179/45 72/180/45
f 51/181/46 52/182/46 72/183/46 62/142/46 60/141/46
f 56/48/47 54/184/47 61/139/47 64/6/47
f 63/50/48 68/53/48 67/185/48 62/186/48
f 59/176/38 98/187/38 66/188/38 69/189/38 68/190/38 63/150/38
f 62/191/49 67/192/49 70/193/49 65/194/49 97/195/49 53/196/49
f 71/60/50 63/63/50 62/197/50 72/198/50
f 72/199/51 73/200/51 76/201/51 82/202/51 71/65/51
f 71/69/52 82/203/52 81/204/52 58/70/52
f 58/73/53 81/205/53 75/206/53 74/207/53 52/208/53
f 82/209/54 76/210/54 75/211/54 81/212/54
f 83/82/55 48/15/55 51/154/55 84/213/55
f 54/214/56 86/215/56 85/216/56 84/217/56
f 83/88/57 93/218/57 94/219/57 56/89/57
f 56/92/58 94/220/58 87/221/58 86/222/58 54/223/58
f 93/224/59 88/225/59 87/226/59 94/227/59
f 95/228/60 55/229/60 57/103/60 96/102/60
f 97/230/61 65/231/61 66/107/61 98/106/61
f 100/232/62 53/233/62 59/111/62 99/110/62
f 102/234/63 109/235/63 110/236/63 104/237/63
f 59/29/64 102/164/64 104/238/64 98/117/64
f 97/239/65 103/240/65 101/163/65 53/162/65
f 98/117/66 104/238/66 103/240/66 97/239/66
f 101/241/67 105/242/67 106/243/67 109/244/67 102/245/67
f 104/246/68 110/247/68 108/248/68 107/249/68 103/250/68
f 109/251/69 106/252/69 108/253/69 110/254/69
usemtl capybara2
f 11/255/70 12/256/70 69/257/70 68/258/70
f 14/259/71 17/260/71 21/261/71 18/262/71
f 69/257/72 12/256/72 10/263/72 66/264/72
f 19/265/73 18/266/73 21/267/73 20/268/73
f 16/269/74 15/270/74 19/271/74 20/272/74
f 17/273/75 16/274/75 20/275/75 21/276/75
f 15/277/76 14/278/76 18/279/76 19/280/76
f 25/281/77 28/282/77 32/283/77 29/284/77
f 31/285/78 30/286/78 29/287/78 32/288/78
f 27/289/79 26/290/79 30/291/79 31/292/79
f 28/293/80 27/294/80 31/295/80 32/296/80
f 26/297/81 25/298/81 29/299/81 30/300/81
f 42/301/82 43/302/82 45/303/82 44/304/82
f 40/305/83 38/306/83 42/307/83 44/308/83
f 67/309/84 68/258/84 69/257/84 70/310/84
f 73/311/85 77/312/85 80/313/85 76/314/85
f 69/257/86 66/264/86 65/315/86 70/310/86
f 78/316/87 79/317/87 80/318/87 77/319/87
f 75/320/88 79/321/88 78/322/88 74/323/88
f 76/324/89 80/325/89 79/326/89 75/327/89
f 74/328/90 78/329/90 77/330/90 73/331/90
f 85/332/91 89/333/91 92/334/91 88/335/91
f 91/336/92 92/337/92 89/338/92 90/339/92
f 87/340/93 91/341/93 90/342/93 86/343/93
f 88/344/94 92/345/94 91/346/94 87/347/94
f 86/348/95 90/349/95 89/350/95 85/351/95
f 105/352/96 107/353/96 108/354/96 106/355/96
f 103/356/97 107/357/97 105/358/97 101/359/97
