# Blender v2.90.0 OBJ File: 'Gun.blend'
# www.blender.org
mtllib Gun.mtl
o Gun_Cube.002
v 0.325841 -0.053809 -0.061006
v 0.412696 -0.378316 -0.061006
v 0.325841 -0.053809 0.061005
v 0.412696 -0.378316 0.061005
v 0.133263 -0.140101 -0.061006
v 0.162332 -0.408243 -0.061006
v 0.133263 -0.140101 0.061005
v 0.162332 -0.408243 0.061005
v 0.352559 0.028736 -0.061006
v 0.352559 0.028736 0.061005
v 0.052785 0.024481 -0.061006
v 0.052785 0.024481 0.061005
v 0.410913 0.074558 -0.070899
v 0.410913 0.074558 0.070899
v -0.272795 0.074678 -0.070899
v -0.272795 0.074678 0.070899
v 0.361707 0.156595 -0.070899
v 0.361707 0.156595 0.070899
v -0.302312 0.156715 -0.070899
v -0.302312 0.156715 0.070899
v -0.381727 0.074678 -0.070899
v -0.381727 0.074678 0.070899
v -0.411244 0.156715 -0.070899
v -0.411244 0.156715 0.070899
v 0.327984 0.203082 -0.040724
v 0.327984 0.203082 0.040724
v -0.336035 0.203203 -0.040724
v -0.336035 0.203203 0.040724
v -0.387541 0.203203 -0.040724
v -0.387541 0.203203 0.040724
v 0.042094 -0.101919 0.025503
v 0.085691 -0.017690 0.025503
v 0.042094 -0.101919 -0.025503
v 0.085691 -0.017690 -0.025503
v 0.041568 -0.127759 0.025503
v 0.122140 -0.080877 0.025503
v 0.041568 -0.127759 -0.025503
v 0.122140 -0.080877 -0.025503
v -0.119092 -0.079757 0.025503
v -0.119092 -0.079757 -0.025503
v -0.140906 -0.101166 0.025503
v -0.140906 -0.101166 -0.025503
v -0.135982 0.095645 0.025503
v -0.135982 0.095645 -0.025503
v -0.166546 0.114537 0.025503
v -0.166546 0.114537 -0.025503
v -0.053569 -0.040207 0.015053
v -0.015863 0.091054 0.015053
v -0.053569 -0.040207 -0.015053
v -0.015863 0.091054 -0.015053
v -0.030698 -0.073032 0.015053
v 0.007008 0.058229 0.015053
v -0.030698 -0.073032 -0.015053
v 0.007008 0.058229 -0.015053
v -0.053569 -0.040207 0.015053
v -0.053569 -0.040207 -0.015053
v -0.030698 -0.073032 0.015053
v -0.030698 -0.073032 -0.015053
vt 0.911755 0.345750
vt 0.783864 0.319631
vt 0.737031 0.424921
vt 0.928820 0.430090
vt 0.969077 0.130336
vt 0.911755 0.345750
vt 0.783864 0.319630
vt 0.806600 0.079087
vt 0.686435 0.079151
vt 0.689174 0.190099
vt 0.637682 0.184869
vt 0.634942 0.073921
vt 0.806599 0.079087
vt 0.969076 0.130336
vt 0.923536 0.032843
vt 0.836597 0.026010
vt 0.769013 0.087524
vt 0.770268 0.225680
vt 0.718837 0.219515
vt 0.717582 0.081359
vt 0.530285 0.455155
vt 0.958872 0.451454
vt 0.928820 0.430090
vt 0.737031 0.424921
vt 0.691035 0.265462
vt 0.639542 0.260232
vt 0.770592 0.261362
vt 0.719161 0.255197
vt 0.468149 0.411312
vt 0.468414 0.366113
vt 0.485745 0.366280
vt 0.485481 0.411479
vt 0.454725 0.408029
vt 0.454953 0.369137
vt 0.730440 0.371792
vt 0.730212 0.410684
vt 0.670509 0.413262
vt 0.670774 0.368063
vt 0.958872 0.451454
vt 0.530285 0.455154
vt 0.513700 0.507718
vt 0.444050 0.506815
vt 0.460752 0.542687
vt 0.493685 0.543114
vt 0.935150 0.513150
vt 0.915135 0.548547
vt 0.935150 0.513150
vt 0.513701 0.507717
vt 0.651038 0.367873
vt 0.650773 0.413072
vt 0.634977 0.412920
vt 0.635241 0.367720
vt 0.460634 0.454252
vt 0.444051 0.506814
vt 0.460635 0.454251
vt 0.496094 0.375999
vt 0.616399 0.377158
vt 0.616248 0.403120
vt 0.495942 0.401961
vt 0.625731 0.377248
vt 0.625579 0.403210
vt 0.493686 0.543113
vt 0.460753 0.542686
vt 0.915134 0.548546
vt 0.845237 0.433976
vt 0.870076 0.433976
vt 0.870076 0.458815
vt 0.845237 0.458815
vt 0.870076 0.483654
vt 0.845237 0.483654
vt 0.870076 0.508492
vt 0.845237 0.508492
vt 0.870076 0.533331
vt 0.845237 0.533331
vt 0.845237 0.533331
vt 0.845237 0.508492
vt 0.894915 0.483654
vt 0.894915 0.508492
vt 0.845237 0.533331
vt 0.845237 0.508492
vt 0.845237 0.483654
vt 0.845237 0.458815
vt 0.845237 0.433976
vt 0.820399 0.483654
vt 0.845237 0.483654
vt 0.820399 0.508492
vt 0.845237 0.458815
vt 0.845237 0.433976
vt 0.698862 0.264105
vt 0.723483 0.264105
vt 0.723483 0.288726
vt 0.698862 0.288726
vt 0.723483 0.313348
vt 0.698862 0.313348
vt 0.723483 0.337970
vt 0.698862 0.337970
vt 0.723483 0.362591
vt 0.698862 0.362591
vt 0.698862 0.337970
vt 0.698862 0.313348
vt 0.748105 0.313348
vt 0.748105 0.337970
vt 0.674240 0.313348
vt 0.674240 0.337970
vt 0.698862 0.362591
vt 0.698862 0.288726
vt 0.698862 0.264105
vn 0.0000 0.0000 -1.0000
vn -0.0000 0.0000 1.0000
vn -0.9942 -0.1078 0.0000
vn 0.1187 -0.9929 0.0000
vn 0.9660 0.2586 0.0000
vn 0.0008 -0.1996 -0.9799
vn -0.8984 -0.4393 0.0000
vn 0.9514 -0.3079 0.0000
vn 0.8576 0.5144 0.0000
vn 0.6176 -0.7865 0.0000
vn -0.1524 -0.9883 0.0000
vn 0.0008 -0.1996 0.9799
vn 0.0001 0.5445 -0.8388
vn 0.0000 0.5445 -0.8388
vn -0.9409 -0.3386 0.0000
vn 0.0000 -1.0000 0.0000
vn 0.0002 1.0000 0.0000
vn 0.0001 1.0000 0.0000
vn 0.0000 1.0000 0.0000
vn 0.8095 0.5872 0.0000
vn 0.0000 0.5445 0.8388
vn 0.0001 0.5445 0.8388
vn -0.8909 0.4542 0.0000
vn -0.8881 0.4597 0.0000
vn 0.5029 -0.8643 -0.0000
vn 0.8662 0.4997 0.0000
vn 0.1362 0.9907 0.0000
vn -0.1442 -0.9895 0.0000
vn 0.5258 0.8506 0.0000
vn -0.9930 -0.1180 0.0000
vn 0.9954 0.0959 0.0000
vn -0.9611 0.2761 0.0000
vn 0.9611 -0.2761 0.0000
vn 0.0000 0.0000 0.0000
vn 0.8205 0.5717 0.0000
vn -0.8205 -0.5717 0.0000
usemtl Gun
s 1
f 1/1/1 5/2/1 11/3/1 9/4/1
f 4/5/2 3/6/2 7/7/2 8/8/2
f 8/9/3 7/10/3 5/11/3 6/12/3
f 6/13/4 2/14/4 4/15/4 8/16/4
f 2/17/5 1/18/5 3/19/5 4/20/5
f 6/13/1 5/2/1 1/1/1 2/14/1
f 9/4/6 11/3/6 15/21/6 13/22/6
f 7/7/2 3/6/2 10/23/2 12/24/2
f 5/11/7 7/10/7 12/25/7 11/26/7
f 3/19/8 1/18/8 9/27/8 10/28/8
f 14/29/9 13/30/9 17/31/9 18/32/9
f 10/33/10 9/34/10 13/30/10 14/29/10
f 11/35/11 12/36/11 16/37/11 15/38/11
f 12/24/12 10/23/12 14/39/12 16/40/12
f 19/41/13 23/42/14 29/43/14 27/44/14
f 17/45/13 19/41/13 27/44/14 25/46/13
f 16/40/2 14/39/2 18/47/2 20/48/2
f 13/22/1 15/21/1 19/41/1 17/45/1
f 21/49/15 22/50/15 24/51/15 23/52/15
f 19/41/1 15/21/1 21/53/1 23/42/1
f 15/38/16 16/37/16 22/50/16 21/49/16
f 16/40/2 20/48/2 24/54/2 22/55/2
f 25/56/17 27/57/18 28/58/18 26/59/17
f 28/58/18 27/57/18 29/60/19 30/61/19
f 18/32/20 17/31/20 25/56/20 26/59/20
f 24/54/21 20/48/22 28/62/21 30/63/21
f 20/48/22 18/47/22 26/64/22 28/62/21
f 23/52/23 24/51/23 30/61/23 29/60/23
f 31/65/24 32/66/24 34/67/24 33/68/24
f 33/68/1 34/67/1 38/69/1 37/70/1
f 37/70/25 38/69/25 36/71/25 35/72/25
f 35/72/2 36/71/2 32/73/2 31/74/2
f 35/72/2 31/74/2 39/75/2 41/76/2
f 38/69/26 34/77/26 32/78/26 36/71/26
f 41/76/2 39/75/2 43/79/2 45/80/2
f 33/68/1 37/70/1 42/81/1 40/82/1
f 31/65/27 33/68/27 40/82/27 39/83/27
f 37/70/28 35/72/28 41/76/28 42/81/28
f 44/84/29 46/85/29 45/80/29 43/86/29
f 40/82/1 42/81/1 46/85/1 44/87/1
f 42/81/30 41/76/30 45/80/30 46/85/30
f 39/83/31 40/82/31 44/87/31 43/88/31
f 47/89/32 48/90/32 50/91/32 49/92/32
f 49/92/1 50/91/1 54/93/1 53/94/1
f 53/94/33 54/93/33 52/95/33 51/96/33
f 51/96/2 52/95/2 48/97/2 47/98/2
f 53/94/34 51/96/34 57/99/34 58/100/34
f 54/93/35 50/101/35 48/102/35 52/95/35
f 56/103/36 58/100/36 57/99/36 55/104/36
f 51/96/34 47/98/34 55/105/34 57/99/34
f 49/92/34 53/94/34 58/100/34 56/106/34
f 47/89/34 49/92/34 56/106/34 55/107/34
