# Blender v2.92.0 OBJ File: ''
# www.blender.org
mtllib fish_green.mtl
o Cube_Cube.001
v -2.698570 1.146057 -0.974521
v -2.698570 -1.488452 -0.974703
v -2.698570 1.146057 0.974225
v -2.698570 -1.488452 0.974408
v -7.677715 1.146057 -0.875629
v -7.677715 -1.488452 -0.875629
v -7.677715 1.146057 0.874180
v -7.677715 -1.488452 0.874180
v -7.677715 -2.261937 -0.000725
v -2.698570 1.974721 -0.000148
v -7.677715 1.974721 -0.000725
v -2.698570 -2.261937 -0.000147
v -10.391888 -1.613765 -0.000725
v -10.391888 -1.095304 0.874180
v 5.069839 0.804890 -0.875629
v 5.069839 -0.828351 -0.875629
v -10.391888 0.565993 0.874180
v 5.069839 0.804890 0.874180
v 5.069839 -0.828351 0.874180
v -10.391888 0.565993 -0.875629
v -10.391888 -1.095304 -0.875629
v 5.069839 1.325359 -0.000725
v -10.391888 1.088981 -0.000725
v 5.069839 -1.348820 -0.000725
v -11.817119 -0.737713 -0.000725
v -11.817119 -0.600435 0.225645
v -11.817119 -0.172077 0.225645
v -11.817119 -0.172077 -0.227094
v -11.817119 -0.600435 -0.227094
v -11.817119 -0.035391 -0.000725
v 5.914921 0.343460 -0.604277
v 5.914921 -0.366387 -0.604277
v 5.914921 0.343460 0.602827
v 5.914921 -0.366387 0.602827
v 5.914921 0.571047 -0.000725
v 5.914921 -0.593766 -0.000725
v 7.065095 0.297674 -0.190420
v 7.065095 -0.295298 -0.190420
v 7.065095 0.297788 0.147164
v 7.065095 -0.295374 0.147164
v 7.065095 0.486844 -0.021628
v 7.065095 -0.484426 -0.021628
v 8.820119 1.508862 -0.297866
v 8.548457 -1.492458 -0.297866
v 8.820119 1.508702 0.254609
v 8.548457 -1.492305 0.254609
v 8.820119 1.582211 -0.021628
v 8.548457 -1.671695 -0.021628
v -2.698570 -0.196695 -1.252512
v -7.677715 -0.196695 1.123702
v -2.698570 -0.196695 1.252216
v -7.677715 -0.196695 -1.125151
v 5.069839 -0.011731 -1.125151
v -10.391888 -0.266228 1.123702
v 5.069839 -0.011731 1.123702
v -10.391888 -0.266228 -1.125151
v -11.817119 -0.386271 0.290205
v -11.817119 -0.386271 -0.291655
v -11.817119 -0.387337 -0.000725
v 5.914921 -0.011526 -0.776409
v 5.914921 -0.011526 0.774960
v 7.065095 0.001207 -0.238559
v 7.065095 0.001231 0.195303
v 8.363402 -0.324360 -0.376648
v 8.363402 -0.324414 0.333392
v 7.917582 -0.251445 -0.000725
v 2.070502 -1.210258 0.874180
v 2.070502 -1.974134 -0.000725
v 2.070502 1.186797 -0.875629
v 2.070502 -1.210258 -0.875629
v 2.070502 1.950673 -0.000725
v 2.070502 1.186797 0.874180
v 2.070502 -0.011731 1.123702
v 2.070502 -0.011731 -1.125151
vt 0.461232 0.602675
vt 0.259797 0.597868
vt 0.259797 0.516947
vt 0.461232 0.521755
vt 0.461232 0.390632
vt 0.259797 0.385824
vt 0.634801 0.442348
vt 0.634801 0.517748
vt 0.732304 0.521053
vt 0.732304 0.466387
vt 0.259797 0.203380
vt 0.461232 0.208188
vt 0.461232 0.283720
vt 0.259797 0.278912
vt 0.259797 0.278912
vt 0.116575 0.315084
vt 0.116575 0.354518
vt 0.259797 0.385824
vt 0.259797 0.516947
vt 0.461232 0.521755
vt 0.461232 0.390632
vt 0.116575 0.417579
vt 0.461232 0.283720
vt 0.634801 0.366948
vt 0.634801 0.318892
vt 0.732304 0.376879
vt 0.732304 0.411720
vt 0.138162 0.344749
vt 0.138162 0.299233
vt 0.050949 0.376142
vt 0.050949 0.388193
vt 0.732304 0.555894
vt 0.732304 0.521053
vt 0.765829 0.516503
vt 0.765829 0.533207
vt 0.732304 0.411720
vt 0.765829 0.464404
vt 0.765829 0.447715
vt 0.138162 0.490595
vt 0.138162 0.536508
vt 0.050949 0.437799
vt 0.050949 0.425799
vt 0.116575 0.480878
vt 0.116575 0.520657
vt 0.634801 0.565804
vt 0.116575 0.480878
vt 0.116575 0.417579
vt 0.116575 0.354518
vt 0.634801 0.517748
vt 0.634801 0.442348
vt 0.732304 0.466387
vt 0.634801 0.366948
vt 0.067814 0.397841
vt 0.067721 0.423267
vt 0.061718 0.414673
vt 0.060099 0.399860
vt 0.075818 0.395903
vt 0.073972 0.412030
vt 0.138162 0.490595
vt 0.050949 0.425799
vt 0.138162 0.417534
vt 0.050949 0.406995
vt 0.138162 0.417534
vt 0.050949 0.406995
vt 0.138162 0.344749
vt 0.050949 0.388193
vt 0.841902 0.542503
vt 0.841902 0.561865
vt 0.765829 0.516503
vt 0.841902 0.542491
vt 0.765829 0.464404
vt 0.765829 0.490449
vt 0.765829 0.490449
vt 0.841902 0.512130
vt 0.841902 0.481752
vt 0.921700 0.322193
vt 0.892850 0.495804
vt 0.841902 0.462390
vt 0.841902 0.481760
vt 0.921700 0.322174
vt 0.921700 0.299957
vt 0.841902 0.512127
vt 0.867689 0.506113
vt 0.915849 0.712907
vt 0.915849 0.703796
vt 0.892850 0.495811
vt 0.915849 0.703815
vt 0.074060 0.380755
vt 0.067907 0.372710
vt 0.061856 0.384265
vn -0.0067 0.7447 0.6674
vn -0.0225 0.1927 0.9810
vn 0.0153 0.2404 -0.9706
vn -0.0065 -0.7670 0.6416
vn -0.1525 -0.7951 -0.5870
vn -0.0223 0.1927 -0.9810
vn -0.0137 -0.2290 -0.9733
vn -0.0063 -0.7670 -0.6416
vn 0.1341 -0.7989 0.5864
vn -0.0066 0.7447 -0.6674
vn -0.4680 -0.7593 -0.4521
vn 0.5812 0.7261 0.3674
vn 0.5816 -0.7259 -0.3672
vn -0.5609 0.7102 0.4254
vn -0.2090 0.7739 -0.5978
vn 0.1341 0.7989 -0.5864
vn -0.0268 0.2236 0.9743
vn -0.1525 -0.7951 0.5870
vn 0.1341 0.7989 0.5864
vn -0.2090 0.7739 0.5978
vn 0.0153 -0.2404 0.9706
vn 0.1341 -0.7989 -0.5864
vn -1.0000 0.0000 0.0000
vn -0.5609 0.7102 -0.4254
vn -0.4723 -0.2541 -0.8440
vn -0.5046 0.2482 0.8269
vn -0.4680 -0.7593 0.4521
vn 0.1465 0.8706 0.4697
vn 0.1297 0.8726 -0.4709
vn 0.4011 -0.3102 0.8619
vn 0.4009 0.3102 -0.8620
vn 0.5816 -0.7259 0.3672
vn 0.5812 0.7261 -0.3674
vn -0.1435 -0.1034 0.9842
vn -0.5404 -0.6482 -0.5365
vn 0.3686 0.2978 -0.8806
vn 0.1650 -0.8681 0.4681
vn 0.1485 -0.8704 -0.4694
vn 0.4012 -0.2934 0.8677
vn 0.7383 -0.2902 -0.6089
vn 0.7584 -0.2903 0.5836
vn -0.5027 0.7446 -0.4392
vn -0.5027 0.7446 0.4393
vn -0.1033 0.0812 -0.9913
vn -0.5403 -0.6482 0.5366
vn -0.1435 -0.1034 -0.9842
vn 0.7775 0.2579 0.5736
vn 0.7571 0.2617 -0.5986
vn 0.3958 0.2941 0.8700
vn 0.3743 -0.2971 -0.8785
vn -0.1033 0.0812 0.9913
vn 0.4011 -0.3102 -0.8619
vn 0.4009 0.3102 0.8620
vn -0.4723 -0.2541 0.8440
vn -0.5046 0.2482 -0.8269
vn 0.0153 0.2404 0.9706
vn -0.0137 -0.2290 0.9733
vn -0.0268 0.2236 -0.9743
vn -0.0223 -0.1999 -0.9796
vn 0.0153 -0.2404 -0.9706
vn -0.0225 -0.1999 0.9796
vn 0.0333 -0.2070 -0.9778
vn 0.0186 0.2032 0.9790
vn 0.0522 -0.7680 -0.6384
vn 0.0335 -0.2070 0.9778
vn 0.0056 0.7577 0.6525
vn 0.0054 0.7577 -0.6525
vn 0.0523 -0.7680 0.6384
vn 0.0184 0.2032 -0.9790
usemtl Material.001
s off
f 10/1/1 11/2/1 7/3/1 3/4/1
f 51/5/2 3/4/2 7/3/2 50/6/2
f 74/7/3 69/8/3 15/9/3 53/10/3
f 9/11/4 12/12/4 4/13/4 8/14/4
f 6/15/5 9/11/5 13/16/5 21/17/5
f 52/18/6 5/19/6 1/20/6 49/21/6
f 52/18/7 6/15/7 21/17/7 56/22/7
f 6/15/8 2/23/8 12/12/8 9/11/8
f 67/24/9 68/25/9 24/26/9 19/27/9
f 1/20/10 5/19/10 11/2/10 10/1/10
f 21/28/11 13/29/11 25/30/11 29/31/11
f 22/32/12 18/33/12 33/34/12 35/35/12
f 24/26/13 16/36/13 32/37/13 36/38/13
f 17/39/14 23/40/14 30/41/14 27/42/14
f 11/2/15 5/19/15 20/43/15 23/44/15
f 69/8/16 71/45/16 22/32/16 15/9/16
f 50/6/17 7/3/17 17/46/17 54/47/17
f 9/11/18 8/14/18 14/48/18 13/16/18
f 71/45/19 72/49/19 18/33/19 22/32/19
f 7/3/20 11/2/20 23/44/20 17/46/20
f 73/50/21 67/24/21 19/27/21 55/51/21
f 68/25/22 70/52/22 16/36/22 24/26/22
f 59/53/23 30/54/23 28/55/23 58/56/23
f 57/57/23 27/58/23 30/54/23 59/53/23
f 23/40/24 20/59/24 28/60/24 30/41/24
f 56/61/25 21/28/25 29/31/25 58/62/25
f 54/63/26 17/39/26 27/42/26 57/64/26
f 13/29/27 14/65/27 26/66/27 25/30/27
f 35/35/28 33/34/28 39/67/28 41/68/28
f 31/69/29 35/35/29 41/68/29 37/70/29
f 55/51/30 19/27/30 34/71/30 61/72/30
f 53/10/31 15/9/31 31/69/31 60/73/31
f 19/27/32 24/26/32 36/38/32 34/71/32
f 15/9/33 22/32/33 35/35/33 31/69/33
f 63/74/34 40/75/34 46/76/34 65/77/34
f 42/78/35 38/79/35 44/80/35 48/81/35
f 60/73/36 31/69/36 37/70/36 62/82/36
f 34/71/37 36/38/37 42/78/37 40/75/37
f 36/38/38 32/37/38 38/79/38 42/78/38
f 61/72/39 34/71/39 40/75/39 63/74/39
f 66/83/40 47/84/40 45/85/40 65/77/40
f 64/86/41 43/87/41 47/84/41 66/83/41
f 37/70/42 41/68/42 47/84/42 43/87/42
f 41/68/43 39/67/43 45/85/43 47/84/43
f 62/82/44 37/70/44 43/87/44 64/86/44
f 40/75/45 42/78/45 48/81/45 46/76/45
f 38/79/46 62/82/46 64/86/46 44/80/46
f 44/80/47 64/86/47 66/83/47 48/81/47
f 48/81/48 66/83/48 65/77/48 46/76/48
f 33/34/49 61/72/49 63/74/49 39/67/49
f 32/37/50 60/73/50 62/82/50 38/79/50
f 39/67/51 63/74/51 65/77/51 45/85/51
f 16/36/52 53/10/52 60/73/52 32/37/52
f 18/33/53 55/51/53 61/72/53 33/34/53
f 14/65/54 54/63/54 57/64/54 26/66/54
f 20/59/55 56/61/55 58/62/55 28/60/55
f 26/88/23 57/57/23 59/53/23 25/89/23
f 25/89/23 59/53/23 58/56/23 29/90/23
f 72/49/56 73/50/56 55/51/56 18/33/56
f 8/14/57 50/6/57 54/47/57 14/48/57
f 5/19/58 52/18/58 56/22/58 20/43/58
f 6/15/59 52/18/59 49/21/59 2/23/59
f 70/52/60 74/7/60 53/10/60 16/36/60
f 4/13/61 51/5/61 50/6/61 8/14/61
f 2/23/62 49/21/62 74/7/62 70/52/62
f 3/4/63 51/5/63 73/50/63 72/49/63
f 12/12/64 2/23/64 70/52/64 68/25/64
f 51/5/65 4/13/65 67/24/65 73/50/65
f 10/1/66 3/4/66 72/49/66 71/45/66
f 1/20/67 10/1/67 71/45/67 69/8/67
f 4/13/68 12/12/68 68/25/68 67/24/68
f 49/21/69 1/20/69 69/8/69 74/7/69
