# Blender v2.92.0 OBJ File: ''
# www.blender.org
mtllib untitled.mtl
o Cube_Cube.001
v 0.175294 1.103382 0.233933
v 0.314089 0.507229 0.017347
v 0.175128 1.086069 0.375667
v 0.170829 0.435661 0.439409
v -0.129620 1.037587 0.233933
v -0.140781 0.507229 0.017347
v -0.103615 1.020274 0.375667
v -0.115413 0.435661 0.439409
v 0.029464 0.483103 0.817757
v 0.038611 0.867348 0.936255
v 0.117305 0.933144 0.936255
v 0.111472 0.483103 0.817757
v 0.019858 0.398973 1.428479
v 0.019858 0.591426 1.428479
v 0.158196 0.657222 1.428479
v 0.158196 0.398973 1.428479
v 0.078570 0.372464 1.756628
v 0.078570 0.417399 1.756628
v 0.140953 0.417399 1.756628
v 0.140953 0.372464 1.756628
v 0.314089 0.709520 -0.138828
v -0.140781 0.709520 -0.138828
v 0.199622 1.165689 0.122398
v -0.107139 1.099894 0.122398
v 0.213076 0.968275 -0.250682
v -0.002106 0.968275 -0.250682
v 0.171835 1.206439 0.045817
v -0.047841 1.169102 0.044690
v 0.151880 1.266309 -0.187709
v 0.013355 1.266309 -0.187709
v 0.151880 1.312783 0.018373
v 0.013355 1.246987 0.018373
v 0.151880 1.377690 -0.309712
v 0.013355 1.377690 -0.309712
v 0.151880 1.395663 -0.106556
v 0.013355 1.449741 -0.106556
v 0.151880 1.335171 -0.044092
v 0.013355 1.335171 -0.044092
v 0.121286 1.294067 -0.444688
v 0.076746 1.294067 -0.444688
v 0.314089 1.037587 0.233933
v 0.284418 1.020274 0.375667
v 0.284418 0.435661 0.439409
v 0.170829 0.507229 0.017347
v 0.148105 0.483103 0.817757
v 0.148105 0.867348 0.936255
v 0.158196 0.591426 1.428479
v 0.158196 0.398973 1.428479
v 0.116726 0.483195 1.756628
v 0.116726 0.372464 1.756628
v 0.170829 0.709520 -0.138828
v 0.321180 1.099894 0.122398
v 0.161165 0.968275 -0.250682
v 0.212763 1.168886 0.044699
v 0.151880 1.266309 -0.187709
v 0.151812 1.246940 0.018375
v 0.151880 1.461459 -0.106556
v 0.151880 1.377690 -0.309712
v 0.151880 1.400967 -0.044092
v 0.119083 1.294067 -0.444688
v -0.067845 0.354333 0.505904
v -0.067845 0.306989 0.417270
v 0.009147 0.354333 0.505904
v 0.009147 0.306989 0.417270
v -0.067845 0.252504 0.461412
v -0.067845 0.318098 0.537536
v 0.009147 0.252504 0.461412
v 0.009147 0.318098 0.537536
v -0.001386 0.021191 0.217946
v -0.057312 0.021191 0.217946
v -0.001386 0.002110 0.265173
v -0.057312 0.002110 0.265173
v -0.001386 -0.009567 0.005063
v -0.057312 -0.009567 0.005063
v -0.001386 -0.016365 0.055544
v -0.057312 -0.016365 0.055544
v -0.058293 0.047814 0.236514
v -0.058293 0.025435 0.283454
v -0.000404 0.047814 0.236514
v -0.000405 0.025435 0.283454
v -0.001386 -0.009440 0.390884
v -0.057312 -0.009440 0.390884
v -0.058293 -0.005864 0.420302
v -0.000405 -0.005864 0.420302
v 0.168941 0.354333 0.505904
v 0.168941 0.306989 0.417270
v 0.245933 0.354333 0.505904
v 0.245933 0.306989 0.417270
v 0.168941 0.252504 0.461412
v 0.168941 0.318098 0.537536
v 0.245933 0.252504 0.461412
v 0.245933 0.318098 0.537536
v 0.235401 0.021191 0.217946
v 0.179474 0.021191 0.217946
v 0.235401 0.002110 0.265173
v 0.179474 0.002110 0.265173
v 0.235401 -0.009567 0.005063
v 0.179474 -0.009567 0.005063
v 0.235401 -0.016365 0.055544
v 0.179474 -0.016365 0.055544
v 0.178493 0.047814 0.236514
v 0.178493 0.025435 0.283454
v 0.236382 0.047814 0.236514
v 0.236382 0.025435 0.283454
v 0.235401 -0.009440 0.390884
v 0.179474 -0.009440 0.390884
v 0.178493 -0.005864 0.420302
v 0.236382 -0.005864 0.420302
v -0.067845 0.555766 0.398308
v -0.067845 0.508422 0.309674
v 0.009147 0.508422 0.309674
v 0.009147 0.555766 0.398308
v 0.168941 0.555766 0.398308
v 0.168941 0.508422 0.309674
v 0.245933 0.508422 0.309674
v 0.245933 0.555766 0.398308
vt 0.395116 0.661251
vt 0.389068 0.531132
vt 0.421716 0.536938
vt 0.427244 0.655888
vt 0.463392 0.734099
vt 0.494974 0.339767
vt 0.643127 0.417738
vt 0.655969 0.635218
vt 0.383956 0.745840
vt 0.359046 0.440867
vt 0.455974 0.360051
vt 0.461244 0.473439
vt 0.542833 0.460003
vt 0.537992 0.355846
vt 0.349737 0.443552
vt 0.402155 0.751493
vt 0.451674 0.740107
vt 0.463093 0.335207
vt 0.336922 0.765593
vt 0.313447 0.501911
vt 0.553186 0.610283
vt 0.551625 0.576702
vt 0.662843 0.550322
vt 0.665586 0.609356
vt 0.614968 0.426359
vt 0.613581 0.396518
vt 0.647532 0.639534
vt 0.572027 0.328473
vt 0.738400 0.563126
vt 0.739157 0.579408
vt 0.773942 0.404050
vt 0.773942 0.495439
vt 0.691961 0.467689
vt 0.689622 0.417351
vt 0.551875 0.345981
vt 0.627380 0.657043
vt 0.765248 0.501843
vt 0.641233 0.454061
vt 0.691101 0.448097
vt 0.691101 0.448097
vt 0.690344 0.431815
vt 0.690344 0.431815
vt 0.856724 0.391462
vt 0.856724 0.412800
vt 0.754695 0.442152
vt 0.754049 0.428268
vt 0.661385 0.436553
vt 0.785401 0.484335
vt 0.900050 0.369885
vt 0.900050 0.340333
vt 0.309723 0.801905
vt 0.255776 0.586850
vt 0.231126 0.681819
vt 0.271232 0.679296
vt 0.272102 0.728304
vt 0.231996 0.730827
vt 0.370313 0.675797
vt 0.364228 0.544890
vt 0.279671 0.553246
vt 0.363187 0.792470
vt 0.234353 0.793436
vt 0.255367 0.792114
vt 0.254659 0.864443
vt 0.236830 0.865565
vt 0.352400 0.666798
vt 0.347788 0.573096
vt 0.215788 0.650467
vt 0.319118 0.818297
vt 0.328874 0.602525
vt 0.331622 0.661639
vt 0.317461 0.663971
vt 0.314713 0.604857
vt 0.345783 0.659307
vt 0.343035 0.600193
vt 0.158598 0.783501
vt 0.286411 0.849113
vt 0.289555 0.816713
vt 0.173643 0.764517
vt 0.268657 0.612442
vt 0.271404 0.671556
vt 0.231132 0.869411
vt 0.054995 0.812202
vt 0.102153 0.867197
vt 0.196861 0.886572
vt 0.065491 0.809302
vt 0.257169 0.861597
vt 0.222565 0.904430
vt 0.150545 0.870940
vt 0.240154 0.662599
vt 0.239314 0.644533
vt 0.299063 0.667001
vt 0.296315 0.607887
vt 0.402155 0.794764
vt 0.451674 0.783378
vt 0.435569 0.469894
vt 0.482690 0.459949
vt 0.482163 0.436008
vt 0.434903 0.439698
vt 0.531559 0.427353
vt 0.531389 0.419632
vt 0.647532 0.682806
vt 0.785401 0.527606
vt 0.599991 0.424140
vt 0.599991 0.424140
vt 0.544109 0.424863
vt 0.531710 0.425831
vt 0.531597 0.420725
vt 0.543996 0.419757
vt 0.900050 0.413156
vt 0.636654 0.417636
vt 0.636542 0.412530
vt 0.213558 0.731987
vt 0.212688 0.682979
vt 0.355837 0.827188
vt 0.227672 0.793857
vt 0.302723 0.843219
vt 0.444073 0.434982
vt 0.477729 0.445274
vt 0.477488 0.434333
vt 0.444073 0.434982
vt 0.268596 0.878600
vt 0.102153 0.867197
vt 0.194006 0.917615
vt 0.222205 0.904378
vt 0.405331 0.438007
vt 0.390075 0.432739
vt 0.390065 0.432274
vt 0.405331 0.438007
vt 0.418992 0.436940
vt 0.418992 0.436940
vt 0.494342 0.405848
vt 0.491762 0.414394
vt 0.495580 0.418751
vt 0.498160 0.410204
vt 0.497861 0.409863
vt 0.497629 0.421089
vt 0.491856 0.420638
vt 0.492088 0.409413
vt 0.496782 0.414770
vt 0.494202 0.423316
vt 0.490384 0.418959
vt 0.492964 0.410413
vt 0.492088 0.409413
vt 0.491856 0.420638
vt 0.497629 0.421089
vt 0.497861 0.409863
vt 0.494018 0.406919
vt 0.497837 0.411276
vt 0.502739 0.378025
vt 0.506557 0.382382
vt 0.508773 0.375042
vt 0.504955 0.370685
vt 0.512691 0.390287
vt 0.514368 0.395101
vt 0.516064 0.393585
vt 0.514277 0.389072
vt 0.492088 0.409413
vt 0.497861 0.409863
vt 0.497258 0.402112
vt 0.491573 0.404129
vt 0.491573 0.404129
vt 0.497258 0.402112
vt 0.527516 0.402665
vt 0.525211 0.399153
vt 0.502358 0.381398
vt 0.505229 0.384673
vt 0.505955 0.382051
vt 0.503182 0.378886
vt 0.500905 0.399001
vt 0.498034 0.395725
vt 0.502016 0.382530
vt 0.504887 0.385805
vt 0.514368 0.395101
vt 0.512691 0.390287
vt 0.514277 0.389072
vt 0.516064 0.393585
vt 0.489980 0.422624
vt 0.492754 0.425788
vt 0.494223 0.420921
vt 0.491450 0.417756
vt 0.500324 0.400708
vt 0.497550 0.397543
vt 0.525211 0.399153
vt 0.527516 0.402665
vt 0.496176 0.402097
vt 0.498950 0.405262
vt 0.499746 0.404951
vt 0.495927 0.400594
vt 0.503009 0.379240
vt 0.505880 0.382516
vt 0.501209 0.385422
vt 0.503983 0.388586
vt 0.506816 0.379526
vt 0.508379 0.380845
vt 0.508379 0.380845
vt 0.506816 0.379526
vt 0.506085 0.419246
vt 0.503505 0.427793
vt 0.507323 0.432149
vt 0.509903 0.423603
vt 0.497861 0.409863
vt 0.497629 0.421089
vt 0.491856 0.420638
vt 0.492088 0.409413
vt 0.508525 0.428168
vt 0.505945 0.436714
vt 0.502127 0.432358
vt 0.504707 0.423812
vt 0.505761 0.420318
vt 0.509579 0.424674
vt 0.514482 0.391424
vt 0.518300 0.395780
vt 0.520516 0.388440
vt 0.516698 0.384084
vt 0.512691 0.390287
vt 0.514368 0.395101
vt 0.516064 0.393585
vt 0.514277 0.389072
vt 0.497258 0.402112
vt 0.491573 0.404129
vt 0.491573 0.404129
vt 0.497258 0.402112
vt 0.527516 0.402665
vt 0.525211 0.399153
vt 0.514101 0.394796
vt 0.516972 0.398072
vt 0.517698 0.395449
vt 0.514924 0.392285
vt 0.512647 0.412399
vt 0.509777 0.409124
vt 0.513759 0.395928
vt 0.516630 0.399204
vt 0.514368 0.395101
vt 0.512691 0.390287
vt 0.514277 0.389072
vt 0.516064 0.393585
vt 0.501723 0.436022
vt 0.504497 0.439187
vt 0.505966 0.434320
vt 0.503192 0.431155
vt 0.512067 0.414106
vt 0.509293 0.410942
vt 0.525211 0.399153
vt 0.527516 0.402665
vt 0.507919 0.415496
vt 0.510692 0.418660
vt 0.511488 0.418350
vt 0.507670 0.413993
vt 0.514752 0.392639
vt 0.517623 0.395914
vt 0.512952 0.398820
vt 0.515725 0.401985
vt 0.506816 0.379526
vt 0.508379 0.380845
vt 0.508379 0.380845
vt 0.506816 0.379526
vt 0.503895 0.391203
vt 0.500077 0.386847
vt 0.502656 0.378300
vt 0.506474 0.382657
vt 0.515638 0.404602
vt 0.511820 0.400245
vt 0.514399 0.391699
vt 0.518217 0.396055
vt 0.491856 0.420638
vt 0.497629 0.421089
vn -0.2178 0.9662 0.1379
vn -0.9562 0.0041 0.2928
vn -0.9957 0.0079 0.0920
vn 0.0000 -0.9859 -0.1672
vn 0.9946 -0.0140 0.1025
vn -0.9979 0.0608 -0.0237
vn -0.4654 0.7676 0.4407
vn 0.0000 -0.9922 0.1244
vn -0.3325 0.9032 0.2714
vn 0.9607 -0.0157 0.2772
vn -0.5469 0.7336 0.4034
vn -0.9996 0.0198 -0.0192
vn 0.0000 -0.9906 -0.1365
vn 0.9998 0.0035 -0.0171
vn 0.0000 0.0000 1.0000
vn -0.9844 0.0000 0.1761
vn 0.0000 -0.9968 -0.0805
vn 0.9986 0.0000 0.0525
vn -0.8761 0.3209 -0.3598
vn 0.0000 -0.6111 -0.7916
vn -0.1880 0.8737 0.4486
vn 0.9998 -0.0142 0.0125
vn 0.0000 0.2067 -0.9784
vn 0.0000 -0.3968 -0.9179
vn -0.1616 0.8190 0.5506
vn 0.8650 0.3387 -0.3701
vn -0.1604 0.5734 0.8034
vn -0.0886 0.2973 0.9507
vn 0.9416 0.3169 -0.1138
vn -0.9632 0.2125 -0.1648
vn -0.0395 0.9330 -0.3578
vn 0.9808 -0.1927 -0.0308
vn -0.9562 -0.2889 -0.0462
vn 0.0000 0.8501 -0.5267
vn 0.0000 -0.9942 -0.1074
vn -0.9675 0.2279 -0.1093
vn 0.9922 0.1125 -0.0540
vn -0.2647 0.5574 0.7869
vn 0.4629 0.8727 0.1553
vn 0.6526 0.6947 0.3025
vn 0.9708 0.2272 0.0771
vn 0.9672 0.1781 0.1810
vn 0.3932 0.7780 0.4900
vn 0.5331 0.8368 0.1246
vn 0.9213 0.3655 -0.1328
vn 1.0000 0.0000 0.0000
vn 0.0000 0.8501 -0.5266
vn 1.0000 -0.0005 -0.0002
vn 0.0000 -0.4712 -0.8821
vn 0.0000 0.4712 0.8821
vn -1.0000 0.0000 0.0000
vn 0.0000 0.6576 0.7533
vn 0.0000 -0.7576 0.6528
vn -0.9995 -0.0296 -0.0130
vn 0.0000 0.5720 -0.8202
vn 0.0000 0.9748 0.2230
vn 0.9995 -0.0296 -0.0130
vn 0.0000 -0.9911 -0.1335
vn 0.0000 -0.9961 0.0878
vn 0.0000 0.9897 -0.1430
vn 0.9995 -0.0242 -0.0204
vn 0.0000 -0.6168 0.7871
vn -0.9995 -0.0242 -0.0204
vn 0.0000 -0.9927 0.1207
vn 0.9984 -0.0565 -0.0092
vn -0.9984 -0.0565 -0.0092
vn 0.0000 -0.9958 -0.0915
vn 0.9995 -0.0296 -0.0131
vn 0.0000 0.8821 -0.4712
usemtl Material.001
s off
f 1/1/1 5/2/1 7/3/1 3/4/1
f 7/5/2 8/6/2 9/7/2 10/8/2
f 8/6/3 7/5/3 5/9/3 6/10/3
f 6/11/4 44/12/4 4/13/4 8/14/4
f 2/15/5 41/16/5 42/17/5 43/18/5
f 6/10/6 5/9/6 24/19/6 22/20/6
f 11/21/7 10/22/7 14/23/7 15/24/7
f 8/14/8 4/13/8 12/25/8 9/26/8
f 3/4/9 7/3/9 10/22/9 11/21/9
f 43/18/10 42/17/10 46/27/10 45/28/10
f 15/24/11 14/23/11 18/29/11 49/30/11
f 10/8/12 9/7/12 13/31/12 14/32/12
f 9/26/13 12/25/13 16/33/13 13/34/13
f 45/35/14 46/36/14 47/37/14 48/38/14
f 50/39/15 49/40/15 18/41/15 17/42/15
f 14/32/16 13/31/16 17/43/16 18/44/16
f 13/34/17 16/33/17 50/45/17 17/46/17
f 48/47/18 47/48/18 19/49/18 20/50/18
f 22/20/19 24/19/19 28/51/19 26/52/19
f 44/53/20 6/54/20 22/55/20 51/56/20
f 5/2/21 1/1/21 23/57/21 24/58/21
f 41/16/22 2/15/22 21/59/22 52/60/22
f 53/61/23 26/62/23 30/63/23 55/64/23
f 51/56/24 22/55/24 26/62/24 53/61/24
f 24/58/25 23/57/25 27/65/25 28/66/25
f 52/60/26 21/59/26 25/67/26 54/68/26
f 38/69/27 59/70/27 57/71/27 36/72/27
f 28/66/28 27/65/28 31/73/28 32/74/28
f 54/68/29 25/67/29 29/75/29 56/76/29
f 26/52/30 28/51/30 32/77/30 30/78/30
f 34/79/31 36/72/31 57/71/31 58/80/31
f 37/81/32 39/82/32 33/83/32 35/84/32
f 40/85/33 38/86/33 36/87/33 34/88/33
f 60/89/34 40/90/34 34/79/34 58/80/34
f 55/91/35 30/92/35 40/90/35 60/89/35
f 30/78/36 32/77/36 38/86/36 40/85/36
f 56/76/37 29/75/37 39/82/37 37/81/37
f 32/74/38 31/73/38 59/70/38 38/69/38
f 42/17/39 41/16/39 1/93/39 3/94/39
f 2/95/4 43/96/4 4/97/4 44/98/4
f 43/96/8 45/99/8 12/100/8 4/97/8
f 46/27/40 42/17/40 3/94/40 11/101/40
f 47/48/41 46/27/41 11/101/41 15/102/41
f 45/99/13 48/103/13 16/104/13 12/100/13
f 20/105/15 19/106/15 49/107/15 50/108/15
f 19/49/42 47/48/42 15/102/42 49/109/42
f 48/103/17 20/110/17 50/111/17 16/104/17
f 21/112/20 2/113/20 44/53/20 51/56/20
f 41/16/43 52/60/43 23/114/43 1/93/43
f 25/115/24 21/112/24 51/56/24 53/61/24
f 52/60/44 54/68/44 27/116/44 23/114/44
f 29/117/23 25/118/23 53/119/23 55/120/23
f 54/68/45 56/76/45 31/121/45 27/116/45
f 35/84/46 33/83/46 58/122/46 57/123/46
f 37/81/46 35/84/46 57/123/46 59/124/46
f 33/125/47 39/126/47 60/127/47 58/128/47
f 56/76/48 37/81/48 59/124/48 31/121/48
f 39/126/35 29/129/35 55/130/35 60/127/35
f 62/131/49 110/132/49 111/133/49 64/134/49
f 64/135/46 111/136/46 112/137/46 63/138/46
f 63/139/50 112/140/50 109/141/50 61/142/50
f 85/143/51 113/144/51 114/145/51 86/146/51
f 63/139/52 61/142/52 66/147/52 68/148/52
f 65/149/53 67/150/53 68/151/53 66/152/53
f 78/153/54 77/154/54 70/155/54 72/156/54
f 61/157/51 62/158/51 65/159/51 66/160/51
f 64/135/46 63/138/46 68/161/46 67/162/46
f 72/156/51 70/155/51 74/163/51 76/164/51
f 77/165/55 79/166/55 69/167/55 70/168/55
f 80/169/56 78/170/56 83/171/56 84/172/56
f 79/173/57 80/174/57 71/175/57 69/176/57
f 74/177/58 73/178/58 75/179/58 76/180/58
f 71/181/59 72/182/59 76/180/59 75/179/59
f 69/176/46 71/175/46 75/183/46 73/184/46
f 70/185/60 69/186/60 73/178/60 74/177/60
f 64/135/61 67/162/61 80/174/61 79/173/61
f 67/187/62 65/188/62 78/189/62 80/190/62
f 62/131/55 64/134/55 79/166/55 77/165/55
f 65/159/63 62/158/63 77/154/63 78/153/63
f 84/172/64 83/171/64 82/191/64 81/192/64
f 71/175/65 80/174/65 84/193/65 81/194/65
f 78/153/66 72/156/66 82/195/66 83/196/66
f 72/182/67 71/181/67 81/192/67 82/191/67
f 86/197/49 114/198/49 115/199/49 88/200/49
f 88/201/46 115/202/46 116/203/46 87/204/46
f 87/205/50 116/206/50 113/207/50 85/208/50
f 87/205/52 85/208/52 90/209/52 92/210/52
f 89/211/53 91/212/53 92/213/53 90/214/53
f 102/215/54 101/216/54 94/217/54 96/218/54
f 85/143/51 86/146/51 89/219/51 90/220/51
f 88/201/46 87/204/46 92/221/46 91/222/46
f 96/218/51 94/217/51 98/223/51 100/224/51
f 101/225/55 103/226/55 93/227/55 94/228/55
f 104/229/56 102/230/56 107/231/56 108/232/56
f 103/233/68 104/234/68 95/235/68 93/236/68
f 98/237/58 97/238/58 99/239/58 100/240/58
f 95/241/59 96/242/59 100/240/59 99/239/59
f 93/236/46 95/235/46 99/243/46 97/244/46
f 94/245/60 93/246/60 97/238/60 98/237/60
f 88/201/61 91/222/61 104/234/61 103/233/61
f 91/247/62 89/248/62 102/249/62 104/250/62
f 86/197/55 88/200/55 103/226/55 101/225/55
f 89/219/63 86/146/63 101/216/63 102/215/63
f 108/232/64 107/231/64 106/251/64 105/252/64
f 95/235/65 104/234/65 108/253/65 105/254/65
f 102/215/66 96/218/66 106/255/66 107/256/66
f 96/242/67 95/241/67 105/252/67 106/251/67
f 111/257/69 110/258/69 109/259/69 112/260/69
f 115/261/69 114/262/69 113/263/69 116/264/69
f 61/157/51 109/265/51 110/266/51 62/158/51
