# Blender v2.82 (sub 7) OBJ File: 'Cabinet.blend'
# www.blender.org
mtllib Cabinet.mtl
o Cabinet_Bottom_Cube
v 3.000000 0.200000 -3.000000
v 3.000000 -0.200000 -3.000000
v 3.000000 0.200000 3.000000
v 3.000000 -0.200000 3.000000
v -3.000000 0.200000 -3.000000
v -3.000000 -0.200000 -3.000000
v -3.000000 0.200000 3.000000
v -3.000000 -0.200000 3.000000
v -3.000000 -0.200000 -2.100000
v 3.000000 0.200000 -2.100000
v -3.000000 0.200000 -2.100000
v 3.000000 -0.200000 -2.100000
v -3.000000 -0.200000 2.235000
v 3.000000 0.200000 2.235000
v -3.000000 0.200000 2.235000
v 3.000000 -0.200000 2.235000
v 2.100000 -0.200000 -3.000000
v 2.100000 0.200000 3.000000
v 2.100000 -0.200000 3.000000
v 2.100000 0.200000 -3.000000
v 2.100000 -0.200000 -2.100000
v 2.100000 0.200000 -2.100000
v 2.100000 -0.200000 2.235000
v 2.100000 0.200000 2.235000
v -2.235000 -0.200000 -3.000000
v -2.235000 0.200000 3.000000
v -2.235000 -0.200000 -2.100000
v -2.235000 -0.200000 2.235000
v -2.235000 -0.200000 3.000000
v -2.235000 0.200000 -3.000000
v -2.235000 0.200000 -2.100000
v -2.235000 0.200000 2.235000
v -3.000000 -1.200000 2.235000
v -3.000000 -1.200000 3.000000
v -2.235000 -1.200000 -3.000000
v -3.000000 -1.200000 -3.000000
v 2.100000 -1.200000 3.000000
v 3.000000 -1.200000 3.000000
v 3.000000 -1.200000 -2.100000
v 3.000000 -1.200000 -3.000000
v -3.000000 -1.200000 -2.100000
v -2.235000 -1.200000 -2.100000
v 3.000000 -1.200000 2.235000
v -2.235000 -1.200000 2.235000
v 2.100000 -1.200000 -3.000000
v 2.100000 -1.200000 -2.100000
v 2.100000 -1.200000 2.235000
v -2.235000 -1.200000 3.000000
v -2.235000 6.200000 3.000000
v -3.000000 6.200000 3.000000
v 3.000000 6.200000 2.235000
v 3.000000 6.200000 3.000000
v -3.000000 6.200000 -2.100000
v -3.000000 6.200000 -3.000000
v 2.100000 6.200000 -3.000000
v 3.000000 6.200000 -3.000000
v 3.000000 6.200000 -2.100000
v 2.100000 6.200000 -2.100000
v -3.000000 6.200000 2.235000
v 2.100000 6.200000 2.235000
v 2.100000 6.200000 3.000000
v -2.235000 6.200000 -3.000000
v -2.235000 6.200000 -2.100000
v -2.235000 6.200000 2.235000
vt 0.843125 0.537500
vt 0.843125 0.500000
vt 0.843125 0.500000
vt 0.843125 0.537500
vt 0.375000 0.968125
vt 0.625000 0.968125
vt 0.625000 1.000000
vt 0.375000 1.000000
vt 0.375000 0.212500
vt 0.625000 0.212500
vt 0.625000 0.250000
vt 0.375000 0.250000
vt 0.337500 0.750000
vt 0.337500 0.718125
vt 0.337500 0.718125
vt 0.337500 0.750000
vt 0.375000 0.718125
vt 0.625000 0.718125
vt 0.625000 0.750000
vt 0.375000 0.750000
vt 0.375000 0.462500
vt 0.625000 0.462500
vt 0.625000 0.500000
vt 0.375000 0.500000
vt 0.625000 0.537500
vt 0.375000 0.537500
vt 0.125000 0.718125
vt 0.156875 0.718125
vt 0.156875 0.718125
vt 0.125000 0.718125
vt 0.375000 0.031875
vt 0.625000 0.031875
vt 0.662500 0.718125
vt 0.662500 0.718125
vt 0.625000 0.718125
vt 0.375000 0.000000
vt 0.625000 0.000000
vt 0.337500 0.537500
vt 0.875000 0.537500
vt 0.875000 0.718125
vt 0.843125 0.718125
vt 0.662500 0.537500
vt 0.156875 0.537500
vt 0.625000 0.281875
vt 0.625000 0.250000
vt 0.625000 0.281875
vt 0.156875 0.500000
vt 0.337500 0.500000
vt 0.375000 0.281875
vt 0.156875 0.750000
vt 0.625000 0.787500
vt 0.375000 0.787500
vt 0.625000 0.537500
vt 0.662500 0.537500
vt 0.375000 0.537500
vt 0.375000 0.500000
vt 0.375000 1.000000
vt 0.375000 0.968125
vt 0.125000 0.537500
vt 0.662500 0.500000
vt 0.843125 0.750000
vt 0.662500 0.750000
vt 0.375000 0.718125
vt 0.375000 0.750000
vt 0.337500 0.500000
vt 0.337500 0.537500
vt 0.156875 0.750000
vt 0.125000 0.750000
vt 0.125000 0.500000
vt 0.156875 0.500000
vt 0.156875 0.537500
vt 0.125000 0.537500
vt 0.375000 0.250000
vt 0.375000 0.212500
vt 0.375000 0.462500
vt 0.375000 0.031875
vt 0.375000 0.000000
vt 0.375000 0.787500
vt 0.375000 0.281875
vt 0.843125 0.718125
vt 0.875000 0.718125
vt 0.875000 0.750000
vt 0.843125 0.750000
vt 0.875000 0.500000
vt 0.875000 0.537500
vt 0.625000 0.500000
vt 0.662500 0.500000
vt 0.662500 0.750000
vt 0.625000 0.750000
vt 0.625000 0.968125
vt 0.625000 1.000000
vt 0.625000 0.787500
vt 0.625000 0.000000
vt 0.625000 0.031875
vt 0.625000 0.212500
vt 0.625000 0.462500
vn 1.0000 0.0000 0.0000
vn 0.0000 0.0000 1.0000
vn -1.0000 0.0000 0.0000
vn 0.0000 0.0000 -1.0000
vn 0.0000 -1.0000 0.0000
vn 0.0000 1.0000 0.0000
usemtl Material.002
s off
f 31/1/1 30/2/1 62/3/1 63/4/1
f 29/5/2 26/6/2 7/7/2 8/8/2
f 9/9/3 11/10/3 5/11/3 6/12/3
f 19/13/3 23/14/3 47/15/3 37/16/3
f 16/17/1 14/18/1 3/19/1 4/20/1
f 17/21/4 20/22/4 1/23/4 2/24/4
f 2/24/1 1/23/1 10/25/1 12/26/1
f 13/27/4 28/28/4 44/29/4 33/30/4
f 13/31/3 15/32/3 11/10/3 9/9/3
f 14/18/4 24/33/4 60/34/4 51/35/4
f 8/36/3 7/37/3 15/32/3 13/31/3
f 12/26/1 10/25/1 14/18/1 16/17/1
f 21/38/5 12/26/5 16/17/5 23/14/5
f 31/1/6 11/39/6 15/40/6 32/41/6
f 10/25/6 22/42/6 24/33/6 14/18/6
f 27/43/5 21/38/5 23/14/5 28/28/5
f 30/44/4 5/11/4 54/45/4 62/46/4
f 25/47/5 17/48/5 21/38/5 27/43/5
f 25/49/4 30/44/4 20/22/4 17/21/4
f 28/28/5 23/14/5 19/13/5 29/50/5
f 4/20/2 3/19/2 18/51/2 19/52/2
f 22/42/2 10/25/2 57/53/2 58/54/2
f 2/24/1 12/26/1 39/55/1 40/56/1
f 6/12/4 5/11/4 30/44/4 25/49/4
f 29/5/2 8/8/2 34/57/2 48/58/2
f 9/59/5 27/43/5 28/28/5 13/27/5
f 22/42/6 31/1/6 32/41/6 24/33/6
f 20/60/6 30/2/6 31/1/6 22/42/6
f 19/52/2 18/51/2 26/6/2 29/5/2
f 24/33/6 32/41/6 26/61/6 18/62/6
f 47/15/5 43/63/5 38/64/5 37/16/5
f 45/65/5 40/56/5 39/55/5 46/66/5
f 33/30/5 44/29/5 48/67/5 34/68/5
f 36/69/5 35/70/5 42/71/5 41/72/5
f 23/14/4 16/17/4 43/63/4 47/15/4
f 9/9/3 6/12/3 36/73/3 41/74/3
f 17/21/4 2/24/4 40/56/4 45/75/4
f 8/36/3 13/31/3 33/76/3 34/77/3
f 28/28/1 29/50/1 48/67/1 44/29/1
f 4/20/2 19/52/2 37/78/2 38/64/2
f 16/17/1 4/20/1 38/64/1 43/63/1
f 6/12/4 25/49/4 35/79/4 36/73/4
f 21/38/3 17/48/3 45/65/3 46/66/3
f 25/47/1 27/43/1 42/71/1 35/70/1
f 27/43/2 9/59/2 41/72/2 42/71/2
f 12/26/2 21/38/2 46/66/2 39/55/2
f 64/80/6 59/81/6 50/82/6 49/83/6
f 62/3/6 54/84/6 53/85/6 63/4/6
f 56/86/6 55/87/6 58/54/6 57/53/6
f 51/35/6 60/34/6 61/88/6 52/89/6
f 10/25/1 1/23/1 56/86/1 57/53/1
f 11/39/2 31/1/2 63/4/2 53/85/2
f 7/7/2 26/6/2 49/90/2 50/91/2
f 24/33/3 18/62/3 61/88/3 60/34/3
f 32/41/4 15/40/4 59/81/4 64/80/4
f 18/51/2 3/19/2 52/89/2 61/92/2
f 3/19/1 14/18/1 51/35/1 52/89/1
f 26/61/1 32/41/1 64/80/1 49/83/1
f 15/32/3 7/37/3 50/93/3 59/94/3
f 20/60/3 22/42/3 58/54/3 55/87/3
f 5/11/3 11/10/3 53/95/3 54/45/3
f 1/23/4 20/22/4 55/96/4 56/86/4
o Cabinet_Top_Cube.001
v -2.857425 5.559000 2.857425
v -2.857425 5.606211 3.200000
v -3.200000 5.606211 2.857425
v -2.857425 6.393789 3.200000
v -2.857425 6.441000 2.857425
v -3.200000 6.393789 2.857425
v -2.857425 5.559000 -2.857425
v -3.200000 5.606211 -2.857425
v -2.857425 5.606211 -3.200000
v -2.857425 6.441000 -2.857425
v -2.857425 6.393789 -3.200000
v -3.200000 6.393789 -2.857425
v 2.857425 5.445699 2.035284
v 3.200000 5.606211 2.857425
v 2.857425 5.606211 3.200000
v 2.857425 6.441000 2.857425
v 2.857425 6.393789 3.200000
v 3.200000 6.393789 2.857425
v 2.857425 5.445699 -2.035284
v 2.857425 5.606211 -3.200000
v 3.200000 5.606211 -2.857425
v 2.857425 6.441000 -2.857425
v 3.200000 6.393789 -2.857425
v 2.857425 6.393789 -3.200000
v -2.857425 4.059000 -2.857425
v -2.857425 4.059000 2.857425
v 2.857425 4.172301 -2.035284
v 2.857425 4.172301 2.035284
v 2.857425 5.559000 2.857425
v 2.857425 5.559000 -2.857425
v 2.857425 4.059000 2.857425
v 2.857425 4.059000 -2.857425
vt 0.388382 0.763382
vt 0.611618 0.763382
vt 0.611618 0.986618
vt 0.388382 0.986618
vt 0.388382 0.700882
vt 0.611618 0.700882
vt 0.611618 0.924118
vt 0.388382 0.924118
vt 0.019887 0.034698
vt 0.480113 0.034698
vt 0.480113 0.965302
vt 0.019887 0.965302
vt 0.388382 0.013382
vt 0.611618 0.013382
vt 0.611618 0.236618
vt 0.388382 0.236618
vt 0.200882 0.325882
vt 0.424118 0.325882
vt 0.424118 0.549118
vt 0.200882 0.549118
vt 0.138382 0.736618
vt 0.138382 0.750000
vt 0.125000 0.736618
vt 0.625000 0.986618
vt 0.611618 1.000000
vt 0.138382 0.513382
vt 0.125000 0.513382
vt 0.138382 0.500000
vt 0.861618 0.513382
vt 0.861618 0.500000
vt 0.875000 0.513382
vt 0.361618 0.736618
vt 0.375000 0.736618
vt 0.361618 0.750000
vt 0.638382 0.736618
vt 0.638382 0.750000
vt 0.625000 0.736618
vt 0.361618 0.513382
vt 0.361618 0.500000
vt 0.375000 0.513382
vt 0.638382 0.513382
vt 0.625000 0.513382
vt 0.638382 0.500000
vt 0.388382 1.000000
vt 0.861618 0.736618
vt 0.875000 0.736618
vt 0.611618 0.263382
vt 0.388382 0.263382
vt 0.611618 0.513382
vt 0.388382 0.513382
vt 0.388382 0.486618
vt 0.611618 0.486618
vt 0.388382 0.736618
vt 0.611618 0.736618
vt 0.861618 0.750000
vt 0.138382 0.513382
vt 0.138382 0.736618
vt 0.361618 0.513382
vt 0.361618 0.736618
vt 0.939481 0.750104
vt 0.552672 0.749226
vt 0.560236 0.250931
vt 0.947045 0.251809
vt 0.361618 0.704503
vt 0.361618 0.545497
vt 0.361618 0.545497
vt 0.361618 0.704503
vn 0.0000 0.0000 1.0000
vn 1.0000 0.0000 0.0000
vn 0.0000 1.0000 0.0000
vn -1.0000 0.0000 0.0000
vn 0.0000 0.0000 -1.0000
vn -0.1353 -0.9815 0.1353
vn -0.1353 0.9815 0.1353
vn -0.1353 -0.9815 -0.1353
vn -0.1353 0.9815 -0.1353
vn 0.1353 -0.9815 0.1353
vn 0.1353 0.9815 0.1353
vn 0.1353 -0.9815 -0.1353
vn 0.1353 0.9815 -0.1353
vn -0.1365 -0.9906 0.0000
vn -0.7071 0.0000 0.7071
vn -0.1365 0.9906 0.0000
vn -0.7071 0.0000 -0.7071
vn 0.0000 -0.9906 -0.1365
vn 0.0000 0.9906 -0.1365
vn 0.7071 0.0000 -0.7071
vn 0.1365 -0.9906 0.0000
vn 0.1365 0.9906 0.0000
vn 0.7071 0.0000 0.7071
vn 0.0000 -0.9906 0.1365
vn 0.0000 0.9906 0.1365
vn 0.0000 -1.0000 0.0000
usemtl Wood
s off
f 79/97/7 81/98/7 68/99/7 66/100/7
f 85/101/8 87/102/8 82/103/8 78/104/8
f 86/105/9 74/106/9 69/107/9 80/108/9
f 67/109/10 70/110/10 76/111/10 72/112/10
f 73/113/11 75/114/11 88/115/11 84/116/11
f 65/117/12 66/118/12 67/119/12
f 68/99/13 69/120/13 70/121/13
f 71/122/14 72/123/14 73/124/14
f 74/125/15 75/126/15 76/127/15
f 93/128/16 78/129/16 79/130/16
f 80/131/17 81/132/17 82/133/17
f 94/134/18 84/135/18 85/136/18
f 86/137/19 87/138/19 88/139/19
f 71/122/20 65/117/20 67/119/20 72/123/20
f 66/100/21 68/99/21 70/121/21 67/140/21
f 69/141/22 74/125/22 76/127/22 70/142/22
f 75/143/23 73/144/23 72/112/23 76/111/23
f 94/134/24 71/122/24 73/124/24 84/135/24
f 74/125/25 86/137/25 88/139/25 75/126/25
f 87/145/26 85/146/26 84/147/26 88/148/26
f 93/128/27 94/134/27 85/146/27 78/149/27
f 86/137/28 80/131/28 82/150/28 87/145/28
f 81/98/29 79/97/29 78/149/29 82/150/29
f 65/117/30 93/128/30 79/130/30 66/118/30
f 80/131/31 69/141/31 68/151/31 81/132/31
f 65/117/10 71/122/10 89/152/10 90/153/10
f 89/152/32 96/154/32 95/155/32 90/153/32
f 93/128/7 65/117/7 90/153/7 95/155/7
f 83/156/8 77/157/8 92/158/8 91/159/8
f 71/122/11 94/134/11 96/154/11 89/152/11
f 77/160/8 83/161/8 94/134/8 93/128/8
f 91/162/8 92/163/8 95/155/8 96/154/8
f 92/163/8 77/160/8 93/128/8 95/155/8
f 83/161/8 91/162/8 96/154/8 94/134/8
