# Blender v3.1.2 OBJ File: 'stool.blend'
# www.blender.org
mtllib stool.mtl
o stool
v 0.175000 0.480000 -0.175000
v 0.175000 0.415000 -0.175000
v 0.175000 0.480000 0.175000
v 0.175000 0.415000 0.175000
v -0.175000 0.480000 -0.175000
v -0.175000 0.415000 -0.175000
v -0.175000 0.480000 0.175000
v -0.175000 0.415000 0.175000
v -0.175000 -0.000000 0.175000
v -0.175000 -0.000000 0.135000
v -0.135000 -0.000000 0.175000
v -0.135000 -0.000000 0.135000
v 0.135000 -0.000000 -0.135000
v 0.135000 -0.000000 -0.175000
v 0.175000 -0.000000 -0.135000
v 0.175000 -0.000000 -0.175000
v -0.175000 -0.000000 -0.135000
v -0.175000 -0.000000 -0.175000
v -0.135000 -0.000000 -0.135000
v -0.135000 -0.000000 -0.175000
v 0.135000 -0.000000 0.175000
v 0.135000 -0.000000 0.135000
v 0.175000 -0.000000 0.175000
v 0.175000 -0.000000 0.135000
v 0.135000 0.415000 0.175000
v 0.135000 0.415000 0.135000
v 0.175000 0.415000 0.135000
v 0.175000 0.415000 0.175000
v 0.135000 0.415000 -0.135000
v 0.135000 0.415000 -0.175000
v 0.175000 0.415000 -0.175000
v 0.175000 0.415000 -0.135000
v -0.175000 0.415000 -0.135000
v -0.175000 0.415000 -0.175000
v -0.135000 0.415000 -0.175000
v -0.135000 0.415000 -0.135000
v -0.175000 0.415000 0.175000
v -0.175000 0.415000 0.135000
v -0.135000 0.415000 0.135000
v -0.135000 0.415000 0.175000
v 0.135000 0.265000 0.147500
v 0.135000 0.285000 0.147500
v 0.135000 0.265000 0.162500
v 0.135000 0.285000 0.162500
v -0.135000 0.265000 0.147500
v -0.135000 0.285000 0.162500
v -0.135000 0.285000 0.147500
v -0.135000 0.265000 0.162500
v 0.147500 0.265000 -0.135000
v 0.147500 0.285000 -0.135000
v 0.162500 0.265000 -0.135000
v 0.162500 0.285000 -0.135000
v 0.147500 0.265000 0.135000
v 0.162500 0.285000 0.135000
v 0.147500 0.285000 0.135000
v 0.162500 0.265000 0.135000
v -0.135000 0.265000 -0.147500
v -0.135000 0.285000 -0.147500
v -0.135000 0.265000 -0.162500
v -0.135000 0.285000 -0.162500
v 0.135000 0.265000 -0.147500
v 0.135000 0.285000 -0.162500
v 0.135000 0.285000 -0.147500
v 0.135000 0.265000 -0.162500
v -0.147500 0.265000 0.135000
v -0.147500 0.285000 0.135000
v -0.162500 0.265000 0.135000
v -0.162500 0.285000 0.135000
v -0.147500 0.265000 -0.135000
v -0.162500 0.285000 -0.135000
v -0.147500 0.285000 -0.135000
v -0.162500 0.265000 -0.135000
vt 0.499512 0.500488
vt 0.000488 0.999512
vt 0.000488 0.500488
vt 0.999512 0.499512
vt 0.500488 0.434082
vt 0.999512 0.434082
vt 0.499512 0.499512
vt 0.000488 0.434082
vt 0.499512 0.434082
vt 0.499512 0.499512
vt 0.000488 0.434082
vt 0.499512 0.434082
vt 0.999512 0.499512
vt 0.500488 0.434082
vt 0.999512 0.434082
vt 0.638184 0.589355
vt 0.607910 0.559082
vt 0.638184 0.559082
vt 0.638184 0.589355
vt 0.607910 0.559082
vt 0.638184 0.559082
vt 0.638184 0.589355
vt 0.607910 0.559082
vt 0.638184 0.559082
vt 0.638184 0.589355
vt 0.607910 0.559082
vt 0.638184 0.559082
vt 0.499512 0.433105
vt 0.440918 0.000488
vt 0.499512 0.000488
vt 0.559082 0.433105
vt 0.500488 0.000488
vt 0.559082 0.000488
vt 0.059082 0.433105
vt 0.000488 0.000488
vt 0.059082 0.000488
vt 0.059082 0.433105
vt 0.000488 0.000488
vt 0.059082 0.000488
vt 0.059082 0.433105
vt 0.000488 0.000488
vt 0.059082 0.000488
vt 0.999512 0.433105
vt 0.940918 0.000488
vt 0.999512 0.000488
vt 0.559082 0.433105
vt 0.500488 0.000488
vt 0.559082 0.000488
vt 0.059082 0.433105
vt 0.000488 0.000488
vt 0.059082 0.000488
vt 0.059082 0.433105
vt 0.000488 0.000488
vt 0.059082 0.000488
vt 0.059082 0.433105
vt 0.000488 0.000488
vt 0.059082 0.000488
vt 0.999512 0.433105
vt 0.940918 0.000488
vt 0.999512 0.000488
vt 0.559082 0.433105
vt 0.500488 0.000488
vt 0.559082 0.000488
vt 0.559082 0.433105
vt 0.500488 0.000488
vt 0.559082 0.000488
vt 0.059082 0.433105
vt 0.000488 0.000488
vt 0.059082 0.000488
vt 0.059082 0.433105
vt 0.000488 0.000488
vt 0.059082 0.000488
vt 0.999512 0.433105
vt 0.940918 0.000488
vt 0.999512 0.000488
vt 0.939941 0.275879
vt 0.560059 0.299316
vt 0.560059 0.275879
vt 0.939941 0.299316
vt 0.560059 0.275879
vt 0.939941 0.275879
vt 0.939941 0.275879
vt 0.560059 0.299316
vt 0.560059 0.275879
vt 0.939941 0.299316
vt 0.560059 0.275879
vt 0.939941 0.275879
vt 0.939941 0.275879
vt 0.560059 0.299316
vt 0.560059 0.275879
vt 0.939941 0.299316
vt 0.560059 0.275879
vt 0.939941 0.275879
vt 0.939941 0.275879
vt 0.560059 0.299316
vt 0.560059 0.275879
vt 0.939941 0.299316
vt 0.560059 0.275879
vt 0.939941 0.275879
vt 0.939941 0.275879
vt 0.560059 0.299316
vt 0.560059 0.275879
vt 0.939941 0.299316
vt 0.560059 0.275879
vt 0.939941 0.275879
vt 0.939941 0.275879
vt 0.560059 0.299316
vt 0.560059 0.275879
vt 0.441406 0.300781
vt 0.058594 0.277344
vt 0.441406 0.277344
vt 0.939941 0.275879
vt 0.560059 0.299316
vt 0.560059 0.275879
vt 0.939941 0.299316
vt 0.560059 0.275879
vt 0.939941 0.275879
vt 0.939941 0.275879
vt 0.560059 0.299316
vt 0.560059 0.275879
vt 0.939941 0.299316
vt 0.560059 0.275879
vt 0.939941 0.275879
vt 0.500488 0.500488
vt 0.999512 0.999512
vt 0.500488 0.999512
vt 0.499512 0.999512
vt 0.500488 0.499512
vt 0.000488 0.499512
vt 0.000488 0.499512
vt 0.500488 0.499512
vt 0.607910 0.589355
vt 0.607910 0.589355
vt 0.607910 0.589355
vt 0.607910 0.589355
vt 0.440918 0.433105
vt 0.500488 0.433105
vt 0.000488 0.433105
vt 0.000488 0.433105
vt 0.000488 0.433105
vt 0.940918 0.433105
vt 0.500488 0.433105
vt 0.000488 0.433105
vt 0.000488 0.433105
vt 0.000488 0.433105
vt 0.940918 0.433105
vt 0.500488 0.433105
vt 0.500488 0.433105
vt 0.000488 0.433105
vt 0.000488 0.433105
vt 0.940918 0.433105
vt 0.939941 0.299316
vt 0.560059 0.299316
vt 0.939941 0.299316
vt 0.560059 0.299316
vt 0.939941 0.299316
vt 0.560059 0.299316
vt 0.939941 0.299316
vt 0.560059 0.299316
vt 0.939941 0.299316
vt 0.560059 0.299316
vt 0.939941 0.299316
vt 0.058594 0.300781
vt 0.939941 0.299316
vt 0.560059 0.299316
vt 0.939941 0.299316
vt 0.560059 0.299316
vt 0.999512 0.500488
vn 0.0000 1.0000 0.0000
vn 0.0000 0.0000 1.0000
vn -1.0000 0.0000 0.0000
vn 1.0000 0.0000 0.0000
vn 0.0000 0.0000 -1.0000
vn 0.0000 -1.0000 0.0000
usemtl Material
s off
f 5/1/1 3/2/1 1/3/1
f 3/4/2 8/5/2 4/6/2
f 7/7/3 6/8/3 8/9/3
f 1/10/4 4/11/4 2/12/4
f 5/13/5 2/14/5 6/15/5
f 12/16/6 9/17/6 10/18/6
f 16/19/6 13/20/6 14/21/6
f 20/22/6 17/23/6 18/24/6
f 24/25/6 21/26/6 22/27/6
f 28/28/2 21/29/2 23/30/2
f 27/31/4 23/32/4 24/33/4
f 26/34/5 24/35/5 22/36/5
f 25/37/3 22/38/3 21/39/3
f 32/40/2 13/41/2 15/42/2
f 31/43/4 15/44/4 16/45/4
f 30/46/5 16/47/5 14/48/5
f 29/49/3 14/50/3 13/51/3
f 36/52/2 17/53/2 19/54/2
f 35/55/4 19/56/4 20/57/4
f 34/58/5 20/59/5 18/60/5
f 33/61/3 18/62/3 17/63/3
f 40/64/2 9/65/2 11/66/2
f 39/67/4 11/68/4 12/69/4
f 38/70/5 12/71/5 10/72/5
f 37/73/3 10/74/3 9/75/3
f 41/76/6 48/77/6 45/78/6
f 47/79/5 41/80/5 45/81/5
f 47/82/1 44/83/1 42/84/1
f 44/85/2 48/86/2 43/87/2
f 49/88/6 56/89/6 53/90/6
f 55/91/3 49/92/3 53/93/3
f 55/94/1 52/95/1 50/96/1
f 52/97/4 56/98/4 51/99/4
f 57/100/6 64/101/6 61/102/6
f 63/103/2 57/104/2 61/105/2
f 63/106/1 60/107/1 58/108/1
f 60/109/5 64/110/5 59/111/5
f 65/112/6 72/113/6 69/114/6
f 71/115/4 65/116/4 69/117/4
f 71/118/1 68/119/1 66/120/1
f 68/121/3 72/122/3 67/123/3
f 2/124/6 8/125/6 6/126/6
f 5/1/1 7/127/1 3/2/1
f 3/4/2 7/128/2 8/5/2
f 7/7/3 5/129/3 6/8/3
f 1/10/4 3/130/4 4/11/4
f 5/13/5 1/131/5 2/14/5
f 12/16/6 11/132/6 9/17/6
f 16/19/6 15/133/6 13/20/6
f 20/22/6 19/134/6 17/23/6
f 24/25/6 23/135/6 21/26/6
f 28/28/2 25/136/2 21/29/2
f 27/31/4 28/137/4 23/32/4
f 26/34/5 27/138/5 24/35/5
f 25/37/3 26/139/3 22/38/3
f 32/40/2 29/140/2 13/41/2
f 31/43/4 32/141/4 15/44/4
f 30/46/5 31/142/5 16/47/5
f 29/49/3 30/143/3 14/50/3
f 36/52/2 33/144/2 17/53/2
f 35/55/4 36/145/4 19/56/4
f 34/58/5 35/146/5 20/59/5
f 33/61/3 34/147/3 18/62/3
f 40/64/2 37/148/2 9/65/2
f 39/67/4 40/149/4 11/68/4
f 38/70/5 39/150/5 12/71/5
f 37/73/3 38/151/3 10/74/3
f 41/76/6 43/152/6 48/77/6
f 47/79/5 42/153/5 41/80/5
f 47/82/1 46/154/1 44/83/1
f 44/85/2 46/155/2 48/86/2
f 49/88/6 51/156/6 56/89/6
f 55/91/3 50/157/3 49/92/3
f 55/94/1 54/158/1 52/95/1
f 52/97/4 54/159/4 56/98/4
f 57/100/6 59/160/6 64/101/6
f 63/103/2 58/161/2 57/104/2
f 63/106/1 62/162/1 60/107/1
f 60/109/5 62/163/5 64/110/5
f 65/112/6 67/164/6 72/113/6
f 71/115/4 66/165/4 65/116/4
f 71/118/1 70/166/1 68/119/1
f 68/121/3 70/167/3 72/122/3
f 2/124/6 4/168/6 8/125/6
